<svg xmlns="http://www.w3.org/2000/svg" width="19.199" height="24.074" viewBox="0 0 19.199 24.074"><defs><style>.a{fill:#2e3133;}</style></defs><path class="a" d="M14.4,7.27a9.653,9.653,0,0,1,4.8,8.777C18.792,22.966,15.9,24.451,6,24a6.156,6.156,0,0,1-6-6.4c0-1.731.691-4.218,2.048-7.473A15.846,15.846,0,0,0,2.42.98.8.8,0,1,1,3.98.62a17.451,17.451,0,0,1-.441,10.088C2.243,13.818,1.6,16.131,1.6,17.6a4.568,4.568,0,0,0,4.436,4.8c9.173.417,11.223-.634,11.564-6.4,0-4.427-2.419-7.331-7.43-8.834a.8.8,0,1,1,.46-1.533,17.938,17.938,0,0,1,2.234.827c1.129-.786,1.246-1.443.511-2.361a12.974,12.974,0,0,0-2.619-2.634A.8.8,0,0,1,11.644.134,14.34,14.34,0,0,1,14.625,3.1,2.81,2.81,0,0,1,14.4,7.27ZM9.6,20.8c-3.041,0-5.6-1.706-5.6-4s2.559-4,5.6-4,5.6,1.706,5.6,4S12.641,20.8,9.6,20.8Zm0-1.6c2.261,0,4-1.159,4-2.4s-1.739-2.4-4-2.4-4,1.159-4,2.4S7.339,19.2,9.6,19.2Z" transform="translate(0 0)"/></svg>