<svg xmlns="http://www.w3.org/2000/svg" width="22.4" height="22.4" viewBox="0 0 22.4 22.4"><defs><style>.a{fill:#2e3133;}</style></defs><path class="a" d="M3.819,5.6a3.527,3.527,0,0,1-.619-2A3.641,3.641,0,0,1,6.88,0C8.089,0,9.5.836,11.2,2.472,12.9.836,14.311,0,15.52,0A3.641,3.641,0,0,1,19.2,3.6a3.527,3.527,0,0,1-.619,2H20.8a1.6,1.6,0,0,1,1.6,1.6v3.2A1.6,1.6,0,0,1,20.8,12h-.059l-.573,7.445A3.2,3.2,0,0,1,16.978,22.4H5.422a3.2,3.2,0,0,1-3.191-2.955L1.659,12H1.6A1.6,1.6,0,0,1,0,10.4V7.2A1.6,1.6,0,0,1,1.6,5.6Zm6.41,0h1.94q-.469-.389-.97-.872-.5.482-.97.872ZM1.6,10.4H20.8V7.2H1.6ZM3.264,12l.563,7.323a1.6,1.6,0,0,0,1.6,1.477H16.978a1.6,1.6,0,0,0,1.6-1.477L19.136,12ZM15.52,5.6a2.041,2.041,0,0,0,2.08-2,2.041,2.041,0,0,0-2.08-2c-.689,0-1.779.655-3.184,2C13.741,4.945,14.831,5.6,15.52,5.6Zm-8.64,0c.689,0,1.779-.655,3.184-2-1.406-1.345-2.5-2-3.184-2a2.041,2.041,0,0,0-2.08,2A2.041,2.041,0,0,0,6.88,5.6Z" transform="translate(0 0)"/></svg>