<svg xmlns="http://www.w3.org/2000/svg" width="22.644" height="22.644" viewBox="0 0 22.644 22.644"><defs><style>.a{fill:#2e3133;}</style></defs><path class="a" d="M11.838,22.2,9.467,23.276a2.4,2.4,0,0,1-3.178-1.192q-.034-.074-.062-.15L5.185,19.154,2.405,18.112A2.4,2.4,0,0,1,1,15.022q.029-.076.062-.15l1.228-2.7-1.228-2.7A2.4,2.4,0,0,1,2.255,6.289q.074-.034.15-.062L5.185,5.185,6.227,2.405A2.4,2.4,0,0,1,9.317,1q.076.029.15.062l2.7,1.228,2.7-1.228A2.4,2.4,0,0,1,18.05,2.255q.034.074.062.15l1.042,2.779,2.779,1.042a2.4,2.4,0,0,1,1.4,3.09q-.029.076-.062.15l-1.228,2.7,1.228,2.7a2.4,2.4,0,0,1-1.192,3.178q-.074.034-.15.062l-2.779,1.042-1.042,2.779a2.4,2.4,0,0,1-3.09,1.4q-.076-.029-.15-.062L12.5,22.2A.8.8,0,0,0,11.838,22.2Zm-.662-1.457a2.4,2.4,0,0,1,1.986,0l2.371,1.078.05.021a.8.8,0,0,0,1.03-.468l1.042-2.779a1.6,1.6,0,0,1,.936-.936l2.779-1.042.05-.021a.8.8,0,0,0,.4-1.059l-1.228-2.7a1.6,1.6,0,0,1,0-1.324l1.228-2.7q.011-.025.021-.05a.8.8,0,0,0-.468-1.03L18.593,6.683a1.6,1.6,0,0,1-.936-.936L16.614,2.967q-.01-.025-.021-.05a.8.8,0,0,0-1.059-.4l-2.7,1.228a1.6,1.6,0,0,1-1.324,0L8.805,2.52,8.755,2.5a.8.8,0,0,0-1.03.468L6.683,5.746a1.6,1.6,0,0,1-.936.936L2.967,7.725l-.05.021a.8.8,0,0,0-.4,1.059l1.228,2.7a1.6,1.6,0,0,1,0,1.324l-1.228,2.7q-.011.025-.021.05a.8.8,0,0,0,.468,1.03l2.779,1.042a1.6,1.6,0,0,1,.936.936l1.042,2.779q.01.025.021.05a.8.8,0,0,0,1.059.4ZM9.769,11.369a1.6,1.6,0,1,1,1.6-1.6A1.6,1.6,0,0,1,9.769,11.369Zm4.8,4.8a1.6,1.6,0,1,1,1.6-1.6A1.6,1.6,0,0,1,14.569,16.169ZM14,9.2a.8.8,0,0,1,1.131,1.131l-4.8,4.8A.8.8,0,0,1,9.2,14Z" transform="translate(-0.847 -0.847)"/></svg>