<svg xmlns="http://www.w3.org/2000/svg" width="24" height="11.864" viewBox="0 0 24 11.864"><defs><style>.a{fill:#2e3133;}</style></defs><path class="a" d="M15.739,4.627l-.973.973a.8.8,0,0,1-1.131-1.131l.673-.673-.593-.344L12.566,4.6a.8.8,0,0,1-1.131-1.131l.848-.848-1.464-.85A9.933,9.933,0,0,1,5.6,3.234a8.54,8.54,0,0,1-4-.927V8.034H21.607L15.739,4.627ZM24,8.878q0,.038,0,.077v.679a2.4,2.4,0,0,1-2.4,2.4H2.4A2.4,2.4,0,0,1,0,9.634V2.307A1.6,1.6,0,0,1,2.339.888,6.947,6.947,0,0,0,5.6,1.634,8.333,8.333,0,0,0,9.991.4,1.6,1.6,0,0,1,11.622.386L22.805,6.88a2.4,2.4,0,0,1,1.178,1.789A.8.8,0,0,1,24,8.834q0,.022,0,.045ZM1.6,9.634a.8.8,0,0,0,.8.8H21.6a.8.8,0,0,0,.8-.8Z" transform="translate(0 -0.17)"/></svg>