<svg xmlns="http://www.w3.org/2000/svg" width="22.314" height="22.314" viewBox="0 0 22.314 22.314"><defs><style>.a{fill:#2e3133;}</style></defs><path class="a" d="M14.9.761.513,13.308a1.6,1.6,0,0,0-.155,2.257c.036.041.036.041.075.08l5.588,5.588a1.6,1.6,0,0,0,2.263,0c.038-.039.038-.039.075-.08L20.9,6.762A1.6,1.6,0,0,0,20.83,4.58L17.087.836A1.6,1.6,0,0,0,14.9.761ZM19.7,5.711,7.153,20.1,1.564,14.514,15.955,1.967Z" transform="translate(0.036 0.612)"/><path class="a" d="M24.671,1.931,23.434,3.785a.8.8,0,0,0,1.331.888l1.418-2.127a1.2,1.2,0,0,0-.15-1.514L24.5-.505a1.2,1.2,0,0,0-1.514-.15L20.856.763a.8.8,0,0,0,.888,1.331L23.6.858Z" transform="translate(-4.071 0.857)"/><path class="a" d="M5.234,14.366l5.6,5.6a.8.8,0,0,0,1.131-1.131l-5.6-5.6a.8.8,0,0,0-1.131,1.131Z" transform="translate(-0.971 -1.915)"/><path class="a" d="M11.234,8.366l5.6,5.6a.8.8,0,0,0,1.131-1.131l-5.6-5.6a.8.8,0,0,0-1.131,1.131Z" transform="translate(-2.171 -0.715)"/></svg>