<svg xmlns="http://www.w3.org/2000/svg" xmlns:xlink="http://www.w3.org/1999/xlink" width="376.782" height="420" viewBox="0 0 376.782 420"><defs><style>.a{fill:#ebfcf5;}.b{fill:none;stroke:#707070;stroke-linecap:round;stroke-miterlimit:10;stroke-width:13.521px;}.c{fill:url(#a);}.d{mix-blend-mode:screen;fill:url(#b);}.d,.i,.l{isolation:isolate;}.e{fill:url(#c);}.f{fill:url(#e);}.g{fill:url(#f);}.h{fill:url(#g);}.i,.l{opacity:0.6;mix-blend-mode:multiply;}.i{fill:url(#h);}.j{fill:url(#i);}.k{fill:url(#j);}.l{fill:url(#k);}.m{fill:url(#l);}.n{fill:#fbe9e5;}</style><linearGradient id="a" x1="0.068" y1="0.932" x2="0.945" y2="0.055" gradientUnits="objectBoundingBox"><stop offset="0.01" stop-color="#cc1e13"/><stop offset="0.15" stop-color="#d02518"/><stop offset="0.36" stop-color="#dc3928"/><stop offset="0.612" stop-color="#ef5a41"/><stop offset="0.642" stop-color="#f25f45"/><stop offset="1" stop-color="#f89574"/></linearGradient><linearGradient id="b" x1="0.479" y1="1.027" x2="0.519" y2="-0.119" xlink:href="#a"/><linearGradient id="c" y1="0.5" x2="1" y2="0.5" gradientUnits="objectBoundingBox"><stop offset="0" stop-color="#f9de5b"/><stop offset="0.2" stop-color="#f7ce42"/><stop offset="0.542" stop-color="#f5b71f"/><stop offset="0.821" stop-color="#f3a909"/><stop offset="1" stop-color="#f3a401"/></linearGradient><linearGradient id="e" x1="-0.001" y1="0.622" x2="0.818" y2="0.422" gradientUnits="objectBoundingBox"><stop offset="0.001" stop-color="#1c6da5"/><stop offset="0.273" stop-color="#2176ac"/><stop offset="0.718" stop-color="#318ec2"/><stop offset="1" stop-color="#3ea2d3"/></linearGradient><linearGradient id="f" x1="0.104" y1="0.597" x2="0.931" y2="0.395" xlink:href="#e"/><radialGradient id="g" cx="0.495" cy="0.565" fy="0.25426653027534485" r="0.714" gradientTransform="matrix(0.735, 0.707, -0.735, 0.707, 0.548, -0.224)" gradientUnits="objectBoundingBox"><stop offset="0" stop-color="#a5e0f4"/><stop offset="0.396" stop-color="#89cae6"/><stop offset="0.734" stop-color="#77bcdd"/><stop offset="1" stop-color="#5c99da"/></radialGradient><linearGradient id="h" x1="0.816" y1="0.804" x2="0.417" y2="0.42" gradientUnits="objectBoundingBox"><stop offset="0" stop-color="#2a84be"/><stop offset="0.122" stop-color="#3291c7" stop-opacity="0.773"/><stop offset="0.267" stop-color="#3c9fd0" stop-opacity="0.537"/><stop offset="0.414" stop-color="#43aad8" stop-opacity="0.345"/><stop offset="0.559" stop-color="#49b3df" stop-opacity="0.192"/><stop offset="0.704" stop-color="#4db9e3" stop-opacity="0.086"/><stop offset="0.848" stop-color="#50bde6" stop-opacity="0.02"/><stop offset="0.989" stop-color="#51bfe7" stop-opacity="0"/></linearGradient><linearGradient id="i" x1="0.442" y1="0.173" x2="0.534" y2="0.693" gradientUnits="objectBoundingBox"><stop offset="0.01" stop-color="#a5e0f4"/><stop offset="1" stop-color="#77bcdd"/></linearGradient><radialGradient id="j" cx="0.495" cy="0.565" fy="0.25426650047302246" r="0.714" gradientTransform="matrix(0.735, 0.707, -0.735, 0.707, -2.776, 1.674)" xlink:href="#g"/><linearGradient id="k" x1="-3.148" y1="-2.289" x2="-3.548" y2="-2.673" xlink:href="#h"/><linearGradient id="l" x1="-2.468" y1="-12.615" x2="-2.376" y2="-12.095" xlink:href="#i"/></defs><g transform="translate(-199.648 -165.196)"><g transform="translate(199.648 165.196)"><path class="a" d="M497.528,574.772c-82.648,33.173-181.7-17.84-225.822-82.354-11.45-16.74-31.589-46.185-24.787-78.36,6.945-32.855,30.546-33.169,37.246-66.184,7.469-36.8-19.414-53.171-13.258-95.335,4.515-30.927,25.409-51.155,30.384-55.972,37.9-36.693,97.717-34.621,129.535-26.387C552.678,201.713,633.74,419.343,562.652,523.911,540,557.229,507.567,570.742,497.528,574.772Z" transform="translate(-216.758 -165.196)"/><path class="a" d="M247.522,415.226c-3.245,13.406-20.358,23.557-30.526,20.134-7.08-2.384-12.757-9.986-14.419-15.126-11.307-34.947,12.946-81,24.812-79.7,3.959.433,9.626,3.218,13.073,21.754C245.37,388.68,251.844,397.366,247.522,415.226Z" transform="translate(-199.648 -230.547)"/></g><path class="b" d="M406.739,319.419l-4.666-4.666a51.285,51.285,0,0,1-11.38-27.2c-1.9-20.386,9.605-40.263,26.377-49.679,16.084-9.03,38.344-9.668,53.863.023,28.809,17.989,22.078,56.508,55.409,72.792a48.284,48.284,0,0,0,13.033,4.273c29.488,4.888,54.558-21.186,60.534-27.721" transform="translate(-71.139 -24.478)"/><path class="b" d="M537.651,619.651l4.666,4.666a52.009,52.009,0,0,1,12.551,29.331c2.239,27.4-19.762,44.524-20.767,45.28-14.431,10.846-35.091,13.889-51.618,7.315-34.009-13.526-26.443-58.2-64.4-75.9-2.738-1.277-21.619-9.756-42.43-3.5-24.61,7.4-42.767,32.669-47.642,64.876" transform="translate(-47.849 -169.405)"/><g transform="translate(489.922 236.646)"><circle class="c" cx="43.254" cy="43.254" r="43.254" transform="translate(0 0)"/><path class="d" d="M751.208,322.359A43.241,43.241,0,0,1,726.17,361.6a42.671,42.671,0,1,0-57.648-57.039,43.262,43.262,0,0,1,82.687,17.8Z" transform="translate(-664.702 -279.11)"/></g><g transform="translate(395.787 351.077)"><path class="e" d="M531.979,517.544l-3.248-.062c-.741-.02-1.482-.023-2.223-.026.01-1.569.029-3.139.016-4.708l-.037-5.72L526.481,506l-1,.019-6.205.115q-2.775.083-5.548.179c-.074-1.7-.146-3.4-.25-5.108-.1-1.939-.243-3.878-.407-5.818-.164,1.939-.305,3.879-.407,5.818-.119,1.939-.2,3.879-.282,5.818l-.029.661.718.028c2.069.08,4.137.139,6.206.2l5.194.1-.03,4.734c-.015,1.907.017,3.814.023,5.721l0,1.029,1.016-.011c1.082-.011,2.166,0,3.248-.032l3.248-.063c1.928-.026,3.856-.1,5.783-.159.031.827.072,1.655.106,2.483.046,1.083.094,2.165.161,3.248.116,2.165.259,4.331.448,6.5.188-2.165.331-4.331.447-6.5.067-1.083.114-2.165.161-3.248s.106-2.166.134-3.248l.019-.72-.761-.023C536.31,517.661,534.144,517.573,531.979,517.544Z" transform="translate(-512.353 -474.162)"/><path class="e" d="M572.32,483.881c-2.166-.065-4.331-.153-6.5-.182l-3.248-.063c-.741-.019-1.482-.023-2.222-.026.011-1.569.028-3.139.016-4.708l-.036-5.72-.006-1.024-1,.019-6.205.115c-1.85.056-3.7.112-5.548.18-.075-1.7-.146-3.4-.25-5.108-.1-1.939-.244-3.878-.408-5.818-.164,1.94-.3,3.879-.407,5.818-.119,1.939-.2,3.879-.282,5.818l-.03.661.719.028c2.068.08,4.137.139,6.205.2l5.193.1-.03,4.734c-.015,1.907.017,3.814.023,5.72l0,1.029,1.016-.01c1.083-.011,2.165,0,3.248-.032l3.248-.063c1.928-.026,3.855-.1,5.783-.159.032.827.072,1.655.105,2.483.047,1.083.094,2.166.161,3.248.116,2.165.259,4.331.448,6.5.189-2.165.331-4.331.448-6.5.066-1.083.113-2.166.161-3.248s.105-2.165.133-3.248l.019-.72Z" transform="translate(-524.969 -461.546)"/></g><g transform="translate(313.182 272.522)"><g transform="translate(50.158 50.158)"><rect class="f" width="7.595" height="31.055" rx="3.797" transform="translate(0 28.754) rotate(-45)"/><rect class="g" width="7.595" height="31.055" rx="3.797" transform="translate(23.384 5.37) rotate(-45)"/></g><path class="h" d="M31.758,0h0A31.758,31.758,0,0,1,63.516,31.758v34.3a0,0,0,0,1,0,0H0a0,0,0,0,1,0,0v-34.3A31.758,31.758,0,0,1,31.758,0Z" transform="translate(0 44.913) rotate(-45)"/><path class="i" d="M31.758,0h0A31.758,31.758,0,0,1,63.516,31.758v34.3a0,0,0,0,1,0,0H0a0,0,0,0,1,0,0v-34.3A31.758,31.758,0,0,1,31.758,0Z" transform="translate(0 44.913) rotate(-45)"/><rect class="j" width="73.647" height="13.048" rx="6.524" transform="translate(33.901 85.978) rotate(-45)"/></g><g transform="translate(417.76 377.1)"><path class="k" d="M31.758,0h0A31.758,31.758,0,0,1,63.516,31.758v34.3a0,0,0,0,1,0,0H0a0,0,0,0,1,0,0v-34.3A31.758,31.758,0,0,1,31.758,0Z" transform="translate(95.204 50.291) rotate(135)"/><path class="l" d="M31.758,0h0A31.758,31.758,0,0,1,63.516,31.758v34.3a0,0,0,0,1,0,0H0a0,0,0,0,1,0,0v-34.3A31.758,31.758,0,0,1,31.758,0Z" transform="translate(95.204 50.291) rotate(135)"/><rect class="m" width="73.647" height="13.048" rx="6.524" transform="translate(61.303 9.226) rotate(135)"/></g><g transform="translate(528.779 257.108)"><path class="n" d="M726.952,345.189,724.4,315.677c-.219-2.338,2.119-3.945,4.383-3.945s4.6,1.607,4.383,3.945L730.6,345.189Zm1.826,3.8a4.288,4.288,0,0,1,4.31,4.164,4.313,4.313,0,0,1-8.62,0A4.288,4.288,0,0,1,728.778,348.988Z" transform="translate(-724.381 -311.732)"/></g></g></svg>