<svg xmlns="http://www.w3.org/2000/svg" xmlns:xlink="http://www.w3.org/1999/xlink" width="588.11" height="421.412" viewBox="0 0 588.11 421.412"><defs><style>.a{fill:#ebfcf5;}.b{fill:url(#a);}.c{fill:url(#b);}.d{fill:url(#c);}.e,.g{opacity:0.5;}.e,.g,.j,.s{mix-blend-mode:multiply;isolation:isolate;}.e{fill:url(#d);}.f{fill:url(#e);}.g{fill:url(#f);}.h{fill:none;stroke:#fff;stroke-miterlimit:10;stroke-width:1.22px;}.i{fill:url(#g);}.j{fill:url(#h);}.k{fill:url(#i);}.l{fill:url(#j);}.m{fill:url(#k);}.n{fill:url(#l);}.o{fill:url(#m);}.p{fill:url(#n);}.q{fill:url(#o);}.r{fill:url(#p);}.t{fill:url(#q);}.u{fill:url(#r);}.v{fill:url(#s);}.w{fill:url(#t);}.x{fill:url(#u);}.y{fill:url(#v);}.z{fill:url(#w);}.aa{fill:url(#x);}.ab{fill:url(#z);}.ac{fill:url(#aa);}.ad{fill:url(#ab);}.ae{fill:url(#ac);}.af{fill:url(#ad);}</style><linearGradient id="a" x1="0.5" y1="1.135" x2="0.5" y2="0.302" gradientUnits="objectBoundingBox"><stop offset="0.009" stop-color="#f7a06a"/><stop offset="0.67" stop-color="#fcbf81"/><stop offset="1" stop-color="#ffd18f"/></linearGradient><linearGradient id="b" x1="0.969" y1="0.289" x2="0.004" y2="0.721" gradientUnits="objectBoundingBox"><stop offset="0" stop-color="#c4dfcc"/><stop offset="0.168" stop-color="#bad9c5"/><stop offset="0.681" stop-color="#a2ccb5"/><stop offset="0.999" stop-color="#9ac7b0"/></linearGradient><linearGradient id="c" x1="0.066" y1="0.281" x2="0.997" y2="0.766" xlink:href="#b"/><linearGradient id="d" x1="0.933" y1="0.5" x2="-0.12" y2="0.5" gradientUnits="objectBoundingBox"><stop offset="0" stop-color="#9ac7b0"/><stop offset="0.345" stop-color="#abd1bb" stop-opacity="0.58"/><stop offset="0.709" stop-color="#bddbc7" stop-opacity="0.165"/><stop offset="0.875" stop-color="#c4dfcc" stop-opacity="0"/></linearGradient><linearGradient id="e" x1="0.1" y1="0.391" x2="1.097" y2="0.613" xlink:href="#b"/><linearGradient id="f" x1="0.942" y1="0.5" x2="0.061" y2="0.5" xlink:href="#d"/><linearGradient id="g" x1="-0.017" y1="0.5" x2="0.892" y2="0.5" gradientUnits="objectBoundingBox"><stop offset="0" stop-color="#9dc9b2"/><stop offset="0.105" stop-color="#a6ceb8"/><stop offset="0.362" stop-color="#b6d7c3"/><stop offset="0.644" stop-color="#c0ddc9"/><stop offset="1" stop-color="#c4dfcc"/></linearGradient><linearGradient id="h" x1="0.5" y1="1.017" x2="0.5" y2="0.254" xlink:href="#d"/><linearGradient id="i" x1="0.996" y1="1" x2="-0.022" y2="0.108" gradientUnits="objectBoundingBox"><stop offset="0" stop-color="#9bc091"/><stop offset="0.273" stop-color="#a7c999"/><stop offset="0.769" stop-color="#c7e1ae"/><stop offset="0.93" stop-color="#d4ebb6"/></linearGradient><linearGradient id="j" x1="0.491" y1="0.566" x2="0.89" y2="-0.074" xlink:href="#i"/><linearGradient id="k" x1="0.524" y1="0.478" x2="0.576" y2="-0.111" xlink:href="#i"/><linearGradient id="l" x1="-0.009" y1="0.88" x2="1.208" y2="0.212" gradientUnits="objectBoundingBox"><stop offset="0.304" stop-color="#9bc091"/><stop offset="0.93" stop-color="#d4ebb6"/></linearGradient><linearGradient id="m" x1="636.951" y1="0.515" x2="637.933" y2="0.49" gradientUnits="objectBoundingBox"><stop offset="0.263" stop-color="#9bc091"/><stop offset="0.93" stop-color="#d4ebb6"/></linearGradient><linearGradient id="n" x1="0.5" y1="1.266" x2="0.5" y2="0.129" xlink:href="#i"/><linearGradient id="o" x1="-0.235" y1="1.271" x2="0.894" y2="0.18" xlink:href="#i"/><linearGradient id="p" x1="0.308" y1="1.003" x2="0.86" y2="0.308" xlink:href="#i"/><linearGradient id="q" x1="0.405" y1="1.188" x2="0.518" y2="0.297" gradientUnits="objectBoundingBox"><stop offset="0" stop-color="#9bc091"/><stop offset="0.103" stop-color="#9ec293" stop-opacity="0.937"/><stop offset="0.292" stop-color="#a8ca99" stop-opacity="0.765"/><stop offset="0.545" stop-color="#b8d6a3" stop-opacity="0.486"/><stop offset="0.849" stop-color="#cde6b2" stop-opacity="0.106"/><stop offset="0.93" stop-color="#d4ebb6" stop-opacity="0"/></linearGradient><linearGradient id="r" x1="-996.507" y1="1352.523" x2="-250.473" y2="340.821" xlink:href="#q"/><linearGradient id="s" x1="0.5" y1="2.317" x2="0.5" y2="0.297" xlink:href="#a"/><linearGradient id="t" x1="0.989" y1="1.004" x2="-0.014" y2="0.105" xlink:href="#i"/><linearGradient id="u" x1="0.49" y1="0.566" x2="0.883" y2="-0.078" xlink:href="#i"/><linearGradient id="v" x1="0.524" y1="0.478" x2="0.575" y2="-0.111" xlink:href="#i"/><linearGradient id="w" x1="0.005" y1="0.88" x2="1.195" y2="0.212" xlink:href="#l"/><linearGradient id="x" x1="285.706" y1="0.515" x2="286.686" y2="0.49" xlink:href="#m"/><linearGradient id="z" x1="-0.227" y1="1.277" x2="0.887" y2="0.176" xlink:href="#i"/><linearGradient id="aa" x1="0.311" y1="1.003" x2="0.85" y2="0.307" xlink:href="#i"/><linearGradient id="ab" x1="0.407" y1="1.189" x2="0.518" y2="0.296" xlink:href="#q"/><linearGradient id="ac" x1="-995.418" y1="1351.44" x2="-250.196" y2="340.551" xlink:href="#q"/><linearGradient id="ad" x1="0.52" y1="1.671" x2="0.485" y2="0.503" xlink:href="#a"/></defs><g transform="translate(-666 -270.588)"><g transform="translate(707 312.175)"><path class="a" d="M720.419,603.924a112.7,112.7,0,0,0-5.589-37.792c-15.866-46.218-53.026-77.555-96.841-112.512-40.094-31.987-28.568-48.093-65.836-88.415-11.437-12.374-49.77-49.952-101.8-55.32C389.446,303.6,319.12,330.051,293,390.54c-23.5,54.428.723,81.052-25.792,144.706-13.119,31.5-40.5,48.211-45.853,77.028-4.057,21.84.933,40.7,8.188,51.649,13.379,20.181,45.034,24.139,60.65,24.139,113.21,0,219.554.313,332.764.469,4.437.391,51.06,3.762,78.609-29.658C719.539,637.071,720.239,610.71,720.419,603.924Z" transform="translate(-214.087 -308.981)"/></g><g transform="translate(666 272)"><path class="b" d="M667.226,728.61c-185.762-.047-361.346-15.434-234.125-37,0,0,79.457-12.39,123.892,3.024,7.152,2.481,17.024,6.479,35.815,12.749C623.9,717.763,649.851,724.491,667.226,728.61Z" transform="translate(-193.716 -310.737)"/><g transform="translate(161.983)"><path class="c" d="M485.54,500.01,513.5,489.62a46.774,46.774,0,0,0,30.463-42.464l2.4-84.184a20.052,20.052,0,0,0-20.043-20.622h0a20.051,20.051,0,0,0-20.051,19.872l-.6,67.573a30.814,30.814,0,0,1-14.9,26.1l-8.135,4.907Z" transform="translate(-366.001 -272.509)"/><path class="d" d="M428.592,406.666l-20.527-7.627A34.338,34.338,0,0,1,385.7,367.864l-1.763-61.8a14.72,14.72,0,0,1,14.715-15.14h0a14.72,14.72,0,0,1,14.719,14.588l.444,49.609a22.623,22.623,0,0,0,10.937,19.161l5.972,3.6Z" transform="translate(-355.05 -266.803)"/><path class="e" d="M428.592,406.666l-20.527-7.627A34.338,34.338,0,0,1,385.7,367.864l-1.763-61.8a14.72,14.72,0,0,1,14.715-15.14h0a14.72,14.72,0,0,1,14.719,14.588l.444,49.609a22.623,22.623,0,0,0,10.937,19.161l5.972,3.6Z" transform="translate(-355.05 -266.803)"/><path class="f" d="M427.747,562.878l-8.4-3.723a36.437,36.437,0,0,1-21.672-33.312V445.522a23.113,23.113,0,0,0-23.113-23.113h0a23.113,23.113,0,0,0-23.1,23.7l2.575,100.857a52.369,52.369,0,0,0,34.959,48.059l38.76,13.649Z" transform="translate(-351.445 -281.391)"/><path class="g" d="M427.747,562.878l-8.4-3.723a36.437,36.437,0,0,1-21.672-33.312V445.522a23.113,23.113,0,0,0-23.113-23.113h0a23.113,23.113,0,0,0-23.1,23.7l2.575,100.857a52.369,52.369,0,0,0,34.959,48.059l38.76,13.649Z" transform="translate(-351.445 -281.391)"/><g transform="translate(11.363 140.252)"><path class="h" d="M425.257,585.991l-21.99-9.785a44.249,44.249,0,0,1-26.258-40.026l-.957-114.632-4.059,3.514a22.481,22.481,0,0,0-7.764,17.349l1.555,98.811A47.247,47.247,0,0,0,393.491,583.5l32.652,14.826" transform="translate(-364.226 -421.548)"/><path class="h" d="M377.528,421.548l5.763,5.176a18.186,18.186,0,0,1,6.032,13.424l.51,89.105A43.771,43.771,0,0,0,415.38,568.8l12.96,5.935" transform="translate(-365.702 -421.548)"/></g><g transform="translate(35.812 24.118)"><path class="h" d="M431.558,392.324l-14.691-7.345a29.835,29.835,0,0,1-16.491-26.309l-.86-67.749-1.683,1.133a13.827,13.827,0,0,0-6.107,11.59l.493,57.884a33.63,33.63,0,0,0,18.354,29.657l19.553,9.968" transform="translate(-391.726 -290.921)"/><path class="h" d="M400.489,290.921l1.977,1.7a17.455,17.455,0,0,1,6.073,13.234v48.013A29.644,29.644,0,0,0,422.5,379.026l8.632,5.381" transform="translate(-392.699 -290.921)"/></g><g transform="translate(118.84 69.841)"><path class="h" d="M486.947,478.836l19.78-9.7A33.187,33.187,0,0,0,525.3,439.78l1.294-97.43-3.906,2.495A14.272,14.272,0,0,0,516.1,356.7l-1,81.994a24.916,24.916,0,0,1-13.026,21.591l-16.957,9.205" transform="translate(-485.116 -342.35)"/><path class="h" d="M526.818,342.35l2.883,2.4a20.584,20.584,0,0,1,7.414,16.083l-1.073,84.075a37.112,37.112,0,0,1-23.762,34.155l-25.173,9.7" transform="translate(-485.337 -342.35)"/></g><path class="i" d="M455.528,263.793h0a25.109,25.109,0,0,0-25.109,24.887l-3.461,391.106h64.065L480.628,288.236A25.109,25.109,0,0,0,455.528,263.793Z" transform="translate(-359.823 -263.793)"/><path class="j" d="M455.528,263.793h0a25.109,25.109,0,0,0-25.109,24.887l-3.461,391.106h64.065L480.628,288.236A25.109,25.109,0,0,0,455.528,263.793Z" transform="translate(-359.823 -263.793)"/><g transform="translate(82.752)"><path class="h" d="M464.153,679.8l-5.06-416.007,6.136,5.677a22.694,22.694,0,0,1,7.275,16.266L479.243,679.8" transform="translate(-446.141 -263.793)"/><path class="h" d="M457.477,263.793l-5.729,5.338a22.689,22.689,0,0,0-7.223,16.633l.562,394.709" transform="translate(-444.525 -263.793)"/></g></g><g transform="translate(67.304 345.748)"><path class="k" d="M244.951,678.956s10.653,36.855,24.881,36.855A94.1,94.1,0,0,0,244.951,678.956Z" transform="translate(-244.951 -655.603)"/><path class="l" d="M318.5,675.965s-1.552,18.918-24.311,39.514h-4.655S300.572,693.815,318.5,675.965Z" transform="translate(-249.898 -655.271)"/><path class="m" d="M291.424,663.907s10.173,26.151-1.512,50.234h-7.7S290.187,685.679,291.424,663.907Z" transform="translate(-249.085 -653.934)"/><path class="n" d="M283.073,652.689a91.231,91.231,0,0,0,2.612,15.812c2.2,8.514,4.536,34.422,1.512,44.4h-7.836S273.45,679.691,283.073,652.689Z" transform="translate(-248.569 -652.689)"/><path class="o" d="M253.919,664.318s7.56,13.258,14.571,25.3a47.73,47.73,0,0,1,6.186,24.57h-3.849S254.469,699.834,253.919,664.318Z" transform="translate(-245.946 -653.979)"/><path class="p" d="M274.718,665s.549,10.339,2.336,16.663,5.773,19.34,2.75,32.6h-6.186S262.9,691.639,274.718,665Z" transform="translate(-247.637 -654.055)"/><path class="q" d="M294.774,716.583a12.248,12.248,0,0,0,3.918-.588c4.762-1.628,8.51-5.3,15.5-16.7,2.134-3.478,4.744-7.984,7.48-13.38a105.3,105.3,0,0,0-10.41,8.867C305.55,700.3,298.825,707.963,294.774,716.583Z" transform="translate(-250.479 -656.376)"/><path class="r" d="M304.517,655.03s7.931,38.445-10.69,58.126h-7.586S292.965,692.1,299,673.642,304.517,655.03,304.517,655.03Z" transform="translate(-249.532 -652.949)"/><g class="s"><path class="t" d="M308.424,688.583c4.625-9.073,5.133-15.2,5.133-15.2A150.931,150.931,0,0,0,300.4,688.46c2.88-16.487-.261-32.658-.457-33.637.011.314-.3,2.559-5.528,18.56-1.039,3.179-2.1,6.435-3.141,9.648a73.2,73.2,0,0,0-3.988-20.368,188.665,188.665,0,0,1-2.867,22.316,113.87,113.87,0,0,0-2.356-16.478,91.231,91.231,0,0,1-2.612-15.812,101.4,101.4,0,0,0-5.21,27.154c-1.688-6.352-2.213-16.207-2.213-16.207a63.889,63.889,0,0,0-5.485,23.06c-6.727-11.576-13.623-23.668-13.623-23.668a95.9,95.9,0,0,0,3.722,25.851,91.753,91.753,0,0,0-11.695-12.837S255.6,712.9,269.832,712.9h19.414a12.248,12.248,0,0,0,3.918-.588c4.762-1.628,8.51-5.3,15.5-16.7,2.134-3.478,4.744-7.984,7.48-13.38C313.647,684.077,311.059,686.2,308.424,688.583Z" transform="translate(-244.951 -652.689)"/><path class="u" d="M306.8,655.03l.011.052C306.807,655.034,306.8,655.03,306.8,655.03Z" transform="translate(-251.813 -652.949)"/></g></g><path class="v" d="M799.7,730.387H550.842s24.468-14.323,57.29-10.145,47.146-16.71,80.564-17.306,49.532,16.113,74.6,17.9S799.7,730.387,799.7,730.387Z" transform="translate(-211.586 -312.514)"/><g transform="translate(331.235 292.297)"><g transform="translate(0)"><path class="w" d="M541.82,647.355s22.727,76.867,53.083,76.867C594.9,724.222,581.12,682.11,541.82,647.355Z" transform="translate(-541.82 -598.647)"/><path class="x" d="M698.747,641.115s-3.311,39.458-51.868,82.415h-9.932S660.489,678.345,698.747,641.115Z" transform="translate(-552.374 -597.954)"/><path class="y" d="M640.971,615.966s21.7,54.543-3.226,104.774H621.321S638.331,661.377,640.971,615.966Z" transform="translate(-550.641 -595.164)"/><path class="z" d="M623.154,592.568a186.314,186.314,0,0,0,5.572,32.979c4.692,17.758,9.678,71.794,3.226,92.6H615.235S602.624,648.887,623.154,592.568Z" transform="translate(-549.54 -592.568)"/><path class="aa" d="M560.953,616.822s16.13,27.652,31.087,52.768a97.7,97.7,0,0,1,13.2,51.245h-8.212S562.126,690.9,560.953,616.822Z" transform="translate(-543.943 -595.259)"/><path class="p" d="M605.327,618.249S606.5,639.813,610.313,653s12.318,40.336,5.866,67.988h-13.2S580.1,673.807,605.327,618.249Z" transform="translate(-547.551 -595.417)"/><path class="ab" d="M648.118,725.833a26.673,26.673,0,0,0,8.36-1.225c10.159-3.4,18.156-11.059,33.069-34.825,4.552-7.255,10.121-16.654,15.958-27.909a223.22,223.22,0,0,0-22.209,18.5C671.109,691.865,656.762,707.855,648.118,725.833Z" transform="translate(-553.614 -600.258)"/><path class="ac" d="M668.906,597.45s16.921,80.187-22.808,121.235H629.912s14.347-43.912,27.222-82.415S668.906,597.45,668.906,597.45Z" transform="translate(-551.594 -593.11)"/></g><g class="s" transform="translate(0)"><path class="ad" d="M677.241,667.433c9.867-18.923,10.951-31.7,10.951-31.7a317.548,317.548,0,0,0-28.064,31.448c6.146-34.388-.557-68.116-.974-70.159.023.656-.634,5.337-11.794,38.711-2.217,6.631-4.478,13.423-6.7,20.123a149.806,149.806,0,0,0-8.507-42.482,385.019,385.019,0,0,1-6.118,46.544c-1.22-14.3-3.146-27.249-5.027-34.367a186.314,186.314,0,0,1-5.572-32.979c-6.727,18.453-9.9,38.3-11.116,56.636-3.6-13.25-4.722-33.8-4.722-33.8a130.793,130.793,0,0,0-11.7,48.1c-14.352-24.146-29.064-49.366-29.064-49.366.342,21.616,3.559,39.467,7.939,53.918a193.037,193.037,0,0,0-24.949-26.773s22.727,76.867,53.083,76.867h41.421a26.673,26.673,0,0,0,8.36-1.225c10.159-3.4,18.156-11.059,33.069-34.825,4.552-7.255,10.121-16.654,15.958-27.909C688.385,658.035,682.862,662.455,677.241,667.433Z" transform="translate(-541.82 -592.568)"/><path class="ae" d="M673.772,597.45l.022.109C673.791,597.459,673.772,597.45,673.772,597.45Z" transform="translate(-556.46 -593.11)"/></g></g><path class="af" d="M610.469,727.993H169.248s37.487-13.6,77.854-12.36,65.052-27.192,117.139-33.371,108.79,20.325,144.543,29.663C543.128,720.9,610.469,727.993,610.469,727.993Z" transform="translate(-169.248 -310.119)"/></g></g></svg>