<svg xmlns="http://www.w3.org/2000/svg" width="30" height="30" viewBox="0 0 30 30"><defs><style>.a{fill:none;}.b{fill:#005091;}</style></defs><rect class="a" width="30" height="30"/><path class="b" d="M11.887,1.006A1.011,1.011,0,0,1,12,1h6a4,4,0,0,1,4,4V9h2.646a3,3,0,0,1,2.785,1.886l1.354,3.385A3,3,0,0,1,29,15.385V22a3,3,0,0,1-3,3,4,4,0,0,1-8,0H12a4,4,0,0,1-8,0,3,3,0,0,1-3-3V20a3,3,0,0,1,3-3H18a2,2,0,0,0,2-2V5a2,2,0,0,0-2-2H14.245a7.988,7.988,0,1,1-2.358-1.994ZM18.535,23a4,4,0,0,1,6.93,0H26a1,1,0,0,0,1-1V15.385a1,1,0,0,0-.072-.371l-1.354-3.385A1,1,0,0,0,24.646,11H22v4a4,4,0,0,1-4,4H4a1,1,0,0,0-1,1v2a1,1,0,0,0,1,1h.535a4,4,0,0,1,6.93,0ZM8,27a2,2,0,1,0-2-2A2,2,0,0,0,8,27Zm14,0a2,2,0,1,0-2-2A2,2,0,0,0,22,27ZM8,14A6,6,0,1,0,2,8,6,6,0,0,0,8,14ZM9,5V7h2a1,1,0,1,1,0,2H8.1A1.1,1.1,0,0,1,7,7.9V5A1,1,0,1,1,9,5Z"/></svg>