<svg xmlns="http://www.w3.org/2000/svg" width="14.101" height="9.88" viewBox="0 0 14.101 9.88"><defs><style>.a{fill:#00a99b;fill-rule:evenodd;}</style></defs><path class="a" d="M15618.3,263.234h-9.9a2.084,2.084,0,0,0-2.1,2.117V271a2.084,2.084,0,0,0,2.1,2.117h9.9a2.084,2.084,0,0,0,2.1-2.117v-5.646A2.084,2.084,0,0,0,15618.3,263.234Zm-10.6,2.117a.694.694,0,0,1,.7-.706h9.9a.694.694,0,0,1,.7.706v.353h-11.3Zm0,1.764V271a.694.694,0,0,0,.7.7h9.9a.694.694,0,0,0,.7-.7v-3.882Zm1.4,2.47a.7.7,0,0,1,.7-.706h2.1a.706.706,0,0,1,0,1.412h-2.1A.7.7,0,0,1,15609.1,269.585Zm5-.706a.706.706,0,0,0,0,1.412h.7a.706.706,0,0,0,0-1.412Z" transform="translate(-15606.3 -263.234)"/></svg>