<svg xmlns="http://www.w3.org/2000/svg" width="30" height="30" viewBox="0 0 30 30"><defs><style>.a{fill:none;}.b{fill:#fff;}</style></defs><rect class="a" width="30" height="30"/><g transform="translate(1)"><path class="b" d="M25.135,24.142a8.422,8.422,0,0,1,2.76,3.411,1,1,0,0,1-1.789.894c-.855-1.71-1.786-2.667-2.757-2.952l-.421.286a5,5,0,0,1-4.784.459A36.379,36.379,0,0,1,7.87,19.1,27.583,27.583,0,0,1,.478,8.646a5,5,0,0,1,.568-4.507l1.14-1.677a3.492,3.492,0,0,1,5.883.166l.186.309a6.457,6.457,0,0,1-.971,7.888L5.1,13.009A33.267,33.267,0,0,0,9.241,17.64a44.522,44.522,0,0,0,4.854,4l2-2a6.457,6.457,0,0,1,7.888-.971l.309.186a3.493,3.493,0,0,1,.839,5.287Zm-7.622-3.088L15.8,22.767A24.711,24.711,0,0,0,18.932,24.4a3,3,0,0,0,2.871-.275l1.535-1.043a1.492,1.492,0,0,0-.071-2.514l-.309-.186A4.457,4.457,0,0,0,17.513,21.054ZM2.359,7.967A18.9,18.9,0,0,0,3.97,11.31l1.9-1.9a4.457,4.457,0,0,0,.67-5.444l-.186-.309A1.492,1.492,0,0,0,3.84,3.586L2.7,5.263A3,3,0,0,0,2.359,7.967Z"/></g></svg>