<svg xmlns="http://www.w3.org/2000/svg" width="14.1" height="12.704" viewBox="0 0 14.1 12.704"><defs><style>.a{fill:#00a99b;fill-rule:evenodd;}</style></defs><path class="a" d="M15557.6,328.553a2.016,2.016,0,0,0-1.9-2.011l-.5-1.251a2.149,2.149,0,0,0-2.8-1.226l-6.7,2.516c-.1.025-.1.059-.2.1a1.968,1.968,0,0,0-1.3,1.872v6.057a2.035,2.035,0,0,0,2.1,2.019h9.2a2.035,2.035,0,0,0,2.1-2.019v-1.526a1.375,1.375,0,0,0,.7-1.166v-1.346a1.375,1.375,0,0,0-.7-1.166Zm-1.4.673v-.673a.678.678,0,0,0-.7-.672h-9.2a.679.679,0,0,0-.7.672v6.057a.679.679,0,0,0,.7.673h9.2a.679.679,0,0,0,.7-.673v-1.346h-.7a2.021,2.021,0,1,1,0-4.038Zm-2.3-3.5.3.808h-4.5l3.3-1.217A.706.706,0,0,1,15553.9,325.727Zm.9,5.518a.679.679,0,0,1,.7-.673h1.4v1.346h-1.4A.678.678,0,0,1,15554.8,331.245Z" transform="translate(-15544.2 -323.925)"/></svg>