<svg xmlns="http://www.w3.org/2000/svg" xmlns:xlink="http://www.w3.org/1999/xlink" width="609.768" height="420" viewBox="0 0 609.768 420"><defs><style>.a,.ay,.d,.g,.j,.s,.y{fill:none;}.b{fill:#ecf6f5;}.c{fill:url(#a);}.ay,.d,.g,.j{stroke:#fff;}.ay,.d,.g,.j,.s,.y{stroke-miterlimit:10;}.d{stroke-width:1.273px;}.ab,.ac,.ad,.ae,.aj,.ak,.ar,.ay,.d,.g,.j,.r{opacity:0.7;}.ab,.ac,.ad,.ae,.aj,.ap,.ar,.as,.aw,.az,.e,.h,.k,.m,.r,.z{mix-blend-mode:multiply;}.ab,.ac,.ad,.ae,.ag,.aj,.ak,.am,.an,.ao,.ap,.ar,.as,.au,.aw,.az,.e,.h,.k,.m,.n,.r,.z{isolation:isolate;}.e{fill:url(#b);}.f{fill:url(#c);}.g{stroke-width:0.994px;}.h{fill:url(#d);}.i{fill:url(#e);}.j{stroke-width:1.07px;}.k{fill:url(#f);}.l{fill:url(#g);}.m{opacity:0.4;fill:url(#h);}.n{fill:#afe5f2;mix-blend-mode:luminosity;}.ap,.as,.aw,.n{opacity:0.5;}.o{fill:url(#i);}.p{fill:url(#j);}.q{fill:url(#k);}.s,.y{stroke:#707070;}.s{stroke-width:40.461px;}.t{fill:url(#l);}.u{fill:url(#m);}.v{fill:url(#n);}.w{fill:url(#p);}.x{fill:url(#q);}.y{stroke-linecap:round;stroke-width:12.132px;}.z{opacity:0.6;fill:url(#t);}.aa{clip-path:url(#u);}.ab{fill:url(#v);}.ac{fill:url(#w);}.ad{fill:url(#x);}.ae{fill:url(#y);}.af{fill:url(#z);}.ag,.am,.an,.ao{mix-blend-mode:screen;}.ag{fill:url(#aa);}.ah{fill:#fbe9e5;}.ai{fill:url(#ab);}.aj{fill:url(#ac);}.ak{mix-blend-mode:overlay;fill:url(#ad);}.al{fill:url(#ae);}.am{fill:url(#af);}.an{fill:url(#ag);}.ao{fill:url(#ah);}.ap{fill:url(#ai);}.aq{fill:url(#aj);}.ar{fill:url(#ak);}.at{fill:url(#al);}.au{mix-blend-mode:soft-light;}.av{fill:#fee9aa;}.aw{fill:url(#am);}.ax{fill:url(#an);}.ay{stroke-width:0.974px;}.az{fill:url(#ao);}</style><radialGradient id="a" cx="0.438" cy="0.464" fx="0.12535856664180756" fy="0.4255346357822418" r="0.51" gradientTransform="matrix(1.793, 0.179, -0.326, 0.984, 1.031, 0.24)" gradientUnits="objectBoundingBox"><stop offset="0" stop-color="#9bc091"/><stop offset="0.273" stop-color="#a7c999"/><stop offset="0.769" stop-color="#c7e1ae"/><stop offset="0.93" stop-color="#d4ebb6"/></radialGradient><linearGradient id="b" x1="0.705" y1="0.517" x2="0.238" y2="0.416" gradientUnits="objectBoundingBox"><stop offset="0" stop-color="#9bc091"/><stop offset="0.103" stop-color="#9ec293" stop-opacity="0.937"/><stop offset="0.292" stop-color="#a8ca99" stop-opacity="0.765"/><stop offset="0.545" stop-color="#b8d6a3" stop-opacity="0.486"/><stop offset="0.849" stop-color="#cde6b2" stop-opacity="0.106"/><stop offset="0.93" stop-color="#d4ebb6" stop-opacity="0"/></linearGradient><radialGradient id="c" cx="0.509" cy="0.444" fx="0.7618505954742432" fy="0.7191303968429565" r="0.549" gradientTransform="matrix(0.466, 0.907, -1.018, 0.427, -4.602, 5.757)" xlink:href="#a"/><linearGradient id="d" x1="0.457" y1="0.936" x2="0.689" y2="0.517" xlink:href="#b"/><radialGradient id="e" cx="0.326" cy="0.637" fx="0.5750719308853149" fy="0.6373224258422852" r="0.667" gradientTransform="matrix(0.954, -0.033, 0.03, 0.965, -0.028, -0.006)" xlink:href="#a"/><linearGradient id="f" x1="-0.336" y1="0.253" x2="0.255" y2="-0.117" xlink:href="#b"/><linearGradient id="g" x1="0.321" y1="-0.001" x2="0.628" y2="0.985" gradientUnits="objectBoundingBox"><stop offset="0.01" stop-color="#a5e0f4"/><stop offset="1" stop-color="#77bcdd"/></linearGradient><linearGradient id="h" x1="0.5" y1="1.002" x2="0.5" y2="0.932" gradientUnits="objectBoundingBox"><stop offset="0" stop-color="#2a84be"/><stop offset="0.026" stop-color="#2b86bf" stop-opacity="0.965"/><stop offset="0.284" stop-color="#389acd" stop-opacity="0.624"/><stop offset="0.518" stop-color="#43aad8" stop-opacity="0.357"/><stop offset="0.721" stop-color="#4ab5e0" stop-opacity="0.161"/><stop offset="0.885" stop-color="#4fbce5" stop-opacity="0.043"/><stop offset="0.989" stop-color="#51bfe7" stop-opacity="0"/></linearGradient><linearGradient id="i" x1="-0.15" y1="-0.763" x2="0.633" y2="1.006" gradientUnits="objectBoundingBox"><stop offset="0.01" stop-color="#47b9e1"/><stop offset="0.27" stop-color="#42b0db"/><stop offset="0.678" stop-color="#369acc"/><stop offset="1" stop-color="#2a84be"/></linearGradient><linearGradient id="j" x1="0.684" y1="1.267" x2="0.027" y2="-0.155" gradientUnits="objectBoundingBox"><stop offset="0" stop-color="#2a84be"/><stop offset="0.546" stop-color="#2074ad"/><stop offset="0.999" stop-color="#1c6da5"/></linearGradient><linearGradient id="k" x1="0.174" y1="-0.019" x2="0.579" y2="1.145" gradientUnits="objectBoundingBox"><stop offset="0.01" stop-color="#51bfe7"/><stop offset="0.252" stop-color="#4bb6e1"/><stop offset="0.606" stop-color="#3ea2d3"/><stop offset="1" stop-color="#2a84be"/></linearGradient><radialGradient id="l" cx="0.5" cy="0.5" r="0.5" gradientUnits="objectBoundingBox"><stop offset="0" stop-color="#77bcdd"/><stop offset="0.283" stop-color="#77bcdd" stop-opacity="0.988"/><stop offset="0.426" stop-color="#78bddd" stop-opacity="0.953"/><stop offset="0.538" stop-color="#7bbfdf" stop-opacity="0.894"/><stop offset="0.633" stop-color="#7ec1e0" stop-opacity="0.808"/><stop offset="0.718" stop-color="#83c5e3" stop-opacity="0.698"/><stop offset="0.796" stop-color="#88c9e5" stop-opacity="0.561"/><stop offset="0.869" stop-color="#8fcee9" stop-opacity="0.4"/><stop offset="0.935" stop-color="#96d4ec" stop-opacity="0.216"/><stop offset="0.997" stop-color="#9edaf0" stop-opacity="0.012"/><stop offset="1" stop-color="#9fdbf1" stop-opacity="0"/></radialGradient><radialGradient id="m" cy="0.5" r="0.5" gradientTransform="translate(0)" xlink:href="#l"/><linearGradient id="n" x1="0.5" y1="-0.148" x2="0.5" y2="0.791" gradientUnits="objectBoundingBox"><stop offset="0.01" stop-color="#51bfe7"/><stop offset="0.251" stop-color="#4bb6e1"/><stop offset="0.628" stop-color="#3ca0d1"/><stop offset="1" stop-color="#2a84be"/></linearGradient><linearGradient id="p" x1="0.5" y1="-0.255" x2="0.5" y2="3.167" gradientUnits="objectBoundingBox"><stop offset="0.009" stop-color="#f2f4ef"/><stop offset="0.401" stop-color="#c1d6e1"/><stop offset="0.798" stop-color="#95bdd4"/><stop offset="1" stop-color="#85b3d0"/></linearGradient><linearGradient id="q" x1="0.5" y1="-0.671" x2="0.5" y2="1.306" gradientUnits="objectBoundingBox"><stop offset="0" stop-color="#1b60b4"/><stop offset="0.054" stop-color="#1a5bae"/><stop offset="0.47" stop-color="#153f85"/><stop offset="0.799" stop-color="#132d6d"/><stop offset="0.999" stop-color="#122764"/></linearGradient><linearGradient id="t" x1="0.5" y1="0.994" x2="0.5" y2="0.158" xlink:href="#h"/><clipPath id="u"><path class="a" d="M649.05,696.67h-289.4A16.785,16.785,0,0,1,342.9,678.84l17.623-282.429a6.5,6.5,0,0,1,6.482-6.09H641.7a6.5,6.5,0,0,1,6.481,6.09L665.8,678.84A16.785,16.785,0,0,1,649.05,696.67Z" transform="translate(-342.866 -390.321)"/></clipPath><radialGradient id="v" cx="0.419" cy="0.53" fy="0.6388522982597351" r="0.197" gradientTransform="translate(-0.408 -1.528) scale(2.485 2.455)" gradientUnits="objectBoundingBox"><stop offset="0" stop-color="#2a84be"/><stop offset="0.317" stop-color="#3595ca" stop-opacity="0.698"/><stop offset="0.989" stop-color="#51bfe7" stop-opacity="0"/></radialGradient><radialGradient id="w" cx="0.5" cy="0.5" fy="0.5952771306037903" r="0.528" gradientTransform="translate(-0.033 -0.483) scale(0.927 0.916)" xlink:href="#v"/><radialGradient id="x" cx="0.711" cy="0.323" fx="0.5159066319465637" fy="0.5518143177032471" r="0.649" gradientTransform="matrix(1, -0.308, 0.324, 0.951, -0.775, 0.823)" xlink:href="#v"/><radialGradient id="y" cx="0.711" cy="0.323" fx="0.5311837196350098" fy="0.5338273048400879" r="0.598" gradientTransform="matrix(1, -0.308, 0.324, 0.951, -0.896, 0.929)" xlink:href="#v"/><linearGradient id="z" x1="0.068" y1="0.932" x2="0.945" y2="0.055" gradientUnits="objectBoundingBox"><stop offset="0.01" stop-color="#cc1e13"/><stop offset="0.15" stop-color="#d02518"/><stop offset="0.36" stop-color="#dc3928"/><stop offset="0.612" stop-color="#ef5a41"/><stop offset="0.642" stop-color="#f25f45"/><stop offset="1" stop-color="#f89574"/></linearGradient><linearGradient id="aa" x1="0.479" y1="1.027" x2="0.519" y2="-0.119" xlink:href="#z"/><linearGradient id="ab" x1="0.434" y1="0.054" x2="0.557" y2="0.853" gradientUnits="objectBoundingBox"><stop offset="0" stop-color="#f3a401"/><stop offset="0.488" stop-color="#f39704"/><stop offset="1" stop-color="#f39007"/></linearGradient><linearGradient id="ac" x1="0.409" y1="0.947" x2="0.53" y2="0.31" gradientUnits="objectBoundingBox"><stop offset="0.009" stop-color="#f3a401"/><stop offset="0.097" stop-color="#f3a503" stop-opacity="0.969"/><stop offset="0.234" stop-color="#f3ab0c" stop-opacity="0.875"/><stop offset="0.402" stop-color="#f4b319" stop-opacity="0.729"/><stop offset="0.596" stop-color="#f5bf2c" stop-opacity="0.522"/><stop offset="0.808" stop-color="#f7ce43" stop-opacity="0.263"/><stop offset="1" stop-color="#f9de5b" stop-opacity="0"/></linearGradient><linearGradient id="ad" x1="0.418" y1="-0.014" x2="0.572" y2="0.98" xlink:href="#ac"/><linearGradient id="ae" x1="0.03" y1="-0.051" x2="0.994" y2="1.058" gradientUnits="objectBoundingBox"><stop offset="0" stop-color="#f9de5b"/><stop offset="1" stop-color="#f3a401"/></linearGradient><linearGradient id="af" x1="-2.962" y1="0.158" x2="3.911" y2="0.86" gradientUnits="objectBoundingBox"><stop offset="0" stop-color="#f9de5b"/><stop offset="1" stop-color="#ffe361"/></linearGradient><linearGradient id="ag" x1="-2.941" y1="0.148" x2="4.211" y2="0.879" xlink:href="#af"/><linearGradient id="ah" x1="0.5" y1="1.137" x2="0.5" y2="0.345" xlink:href="#af"/><linearGradient id="ai" x1="0.5" y1="1" x2="0.5" y2="0.91" xlink:href="#ac"/><linearGradient id="aj" x1="0.46" y1="-0.109" x2="0.532" y2="0.992" xlink:href="#ab"/><linearGradient id="ak" x1="0.5" y1="1.137" x2="0.5" y2="0.345" xlink:href="#ac"/><linearGradient id="al" x1="0.863" y1="1.437" x2="0.495" y2="0.485" xlink:href="#ac"/><radialGradient id="am" cx="0.411" cy="0.496" fx="0.6499645997583866" fy="0.49606719613075256" r="0.241" gradientTransform="translate(-0.724 -0.646) scale(2.276 2.13)" xlink:href="#ac"/><linearGradient id="an" x1="0.864" y1="1.213" x2="0.251" y2="0.283" gradientUnits="objectBoundingBox"><stop offset="0" stop-color="#9bc091"/><stop offset="0.331" stop-color="#a7c999"/><stop offset="0.934" stop-color="#c7e1ae"/><stop offset="1" stop-color="#cce5b1"/></linearGradient><linearGradient id="ao" x1="0.5" y1="1.883" x2="0.5" y2="-0.194" xlink:href="#b"/></defs><g transform="translate(-133.497 -265.596)"><g transform="translate(133.497 265.596)"><path class="b" d="M744.545,582.907c.224-7.732-.31-24.652-6.73-41.845-19.106-51.175-63.855-85.873-116.617-124.578-48.281-35.418-34.4-53.251-79.28-97.9-13.772-13.7-59.831-45.727-122.489-51.671-73.344-6.958-158.132,12.746-189.588,79.723-28.3,60.264.87,89.745-31.059,160.225-15.8,34.873-48.77,53.381-55.216,85.288-4.885,24.182,1.122,45.069,9.86,57.188,16.111,22.345,54.23,26.729,73.035,26.729,136.329,0,264.389.347,400.717.52,5.343.432,61.486,4.165,94.661-32.838C743.485,619.607,744.328,590.421,744.545,582.907Z" transform="translate(-134.816 -265.596)"/><path class="b" d="M150.305,552.279c-8.2-.847-16-8.447-16.75-18.76-1.458-20.055,24.867-41.8,35.071-64.475,7.89-17.534,14.782-23.692,19.869-21.958,1.914.652,5.482,1.861,6.139,15.821C196.526,503.085,170.661,554.382,150.305,552.279Z" transform="translate(-133.497 -294.331)"/></g><g transform="translate(259.797 397.398)"><path class="c" d="M347.934,583.151c18.764-1.858,44.152-126.132-2.423-154.411-17.747-10.775-46.24-7.792-57.035,6.252-14.786,19.236,5.523,56.76,41.816,123.815C342.387,581.156,345.221,583.42,347.934,583.151Z" transform="translate(-283.601 -422.238)"/><path class="d" d="M336.754,457.942s24.107,32.2,18.4,87.116" transform="translate(-292.029 -427.9)"/><path class="e" d="M347.937,583.149c-2.721.268-5.549-1.992-17.645-24.34-7.564-13.969-14.43-26.654-20.43-38.159-22.808-43.731-33.1-70.427-21.393-85.661,10.8-14.044,39.295-17.023,57.036-6.246,15.062,9.139,22.593,28.315,25.26,50.137C376.359,524.57,360.632,581.9,347.937,583.149Z" transform="translate(-283.6 -422.238)"/></g><g transform="translate(554.042 437.326)"><path class="f" d="M633.731,651.687c9.24,12.844,143.561-41.619,162.3-116.824,2.489-9.987,8.081-32.424-4.833-48.96-6.74-8.63-19.651-17.1-33.906-16.137-4.052.274-11.559,1.536-20.35,8.21-25.165,19.105-27.44,57.184-38.363,87.953C677.306,625.864,628.2,644,633.731,651.687Z" transform="translate(-633.298 -469.691)"/><path class="g" d="M680.617,634.028a240.941,240.941,0,0,0,64.854-63.595,238.069,238.069,0,0,0,25.238-47.225" transform="translate(-640.802 -478.177)"/><path class="h" d="M796.03,534.864c-18.741,75.2-153.059,129.67-162.3,116.823-4.586-6.375,28.421-19.944,51.95-58.6a145.611,145.611,0,0,0,12.9-27.16c10.329-29.086,12.923-64.712,34.449-84.656,1.236-1.155,2.544-2.248,3.917-3.3,8.785-6.675,16.294-7.94,20.347-8.212,14.255-.963,27.163,7.51,33.9,16.139C804.113,502.438,798.521,524.879,796.03,534.864Z" transform="translate(-633.298 -469.691)"/></g><g transform="translate(598.373 563.017)"><path class="i" d="M689.486,728.178c-7.629-2.87-5.474-64.928,34.011-93.945,5.437-4,30.158-22.162,52.861-12.235,13.161,5.755,26.719,21.422,23.619,34.207-5.35,22.057-54.618,12.2-92.717,51.959C695.536,720.4,692.538,729.327,689.486,728.178Z" transform="translate(-685.983 -619.069)"/><path class="j" d="M690.147,711.717s19.489-57.613,74.512-63.236" transform="translate(-686.644 -623.733)"/><path class="k" d="M689.486,728.178c-7.629-2.87-5.474-64.928,34.011-93.945,5.437-4,30.158-22.162,52.861-12.235,13.161,5.755,26.719,21.422,23.619,34.207-5.35,22.057-54.618,12.2-92.717,51.959C695.536,720.4,692.538,729.327,689.486,728.178Z" transform="translate(-685.983 -619.069)"/></g><g transform="translate(216.737 337.753)"><g transform="translate(92.928 32.79)"><path class="l" d="M649.05,696.67h-289.4A16.785,16.785,0,0,1,342.9,678.84l17.623-282.429a6.5,6.5,0,0,1,6.482-6.09H641.7a6.5,6.5,0,0,1,6.481,6.09L665.8,678.84A16.785,16.785,0,0,1,649.05,696.67Z" transform="translate(-342.866 -390.321)"/><path class="m" d="M649.05,696.67h-289.4A16.785,16.785,0,0,1,342.9,678.84l17.623-282.429a6.5,6.5,0,0,1,6.482-6.09H641.7a6.5,6.5,0,0,1,6.481,6.09L665.8,678.84A16.785,16.785,0,0,1,649.05,696.67Z" transform="translate(-342.866 -390.321)"/><path class="n" d="M705.056,690.964a17.26,17.26,0,0,1-12.9,5.706h-57.8a17.264,17.264,0,0,1-12.9-5.706,16.463,16.463,0,0,1-4.243-12.119l18.42-288.52h49a6.581,6.581,0,0,1,6.63,6.089L709.3,678.844A16.457,16.457,0,0,1,705.056,690.964Z" transform="translate(-386.366 -390.322)"/><path class="o" d="M705.543,690.964a16.706,16.706,0,0,1-12.606,5.706h-56.5a16.792,16.792,0,0,1-16.755-17.825l18.007-288.52h47.9a6.494,6.494,0,0,1,6.482,6.089l17.626,282.431A16.688,16.688,0,0,1,705.543,690.964Z" transform="translate(-386.756 -390.322)"/><path class="p" d="M706.331,740.493a16.707,16.707,0,0,1-12.606,5.706h-56.5a16.709,16.709,0,0,1-12.606-5.706l17.347-16.057,23.511-21.772Z" transform="translate(-387.544 -439.851)"/><path class="q" d="M714.031,690.964l-40.858-37.829V390.324h20.9a6.494,6.494,0,0,1,6.481,6.089l17.626,282.431A16.687,16.687,0,0,1,714.031,690.964Z" transform="translate(-395.244 -390.322)"/><g transform="translate(55.816 15.099)"><g class="r" transform="translate(19.422 16.069)"><path class="s" d="M536.419,428.867c1.565,3.67,11.482,28.032-1.138,52.73-8.193,16.034-26.077,32.587-48.562,32.243-18.835-.287-31.557-12.285-34.906-15.445-27.181-25.636-18.309-67.666-17.544-71.031" transform="translate(-432.283 -427.363)"/></g><circle class="t" cx="19.419" cy="19.419" r="19.419"/><g transform="translate(103.839)"><circle class="u" cx="19.419" cy="19.419" r="19.419"/></g><g transform="translate(6.554 4.454)"><circle class="v" cx="13.019" cy="13.019" r="13.019"/></g><g transform="translate(110.084 4.454)"><circle class="v" cx="13.019" cy="13.019" r="13.019"/></g><g transform="translate(5.581 3.482)"><circle class="w" cx="13.019" cy="13.019" r="13.019"/><circle class="x" cx="7.9" cy="7.9" r="7.9" transform="translate(5.119 5.119)"/></g><g transform="translate(109.111 3.482)"><circle class="w" cx="13.019" cy="13.019" r="13.019"/><circle class="x" cx="7.9" cy="7.9" r="7.9" transform="translate(5.119 5.119)"/></g><g transform="translate(15.904 16.66)"><path class="y" d="M534.387,428.171c3.885,17.081,2.665,34.56-3.435,49.219-6.02,14.467-16.3,25.326-28.959,30.577a48.062,48.062,0,0,1-18.521,3.616,57.081,57.081,0,0,1-23.648-5.218c-25.234-12.413-37.475-45.343-29.1-78.3" transform="translate(-428.102 -428.066)"/></g></g><path class="z" d="M705.543,690.964a16.706,16.706,0,0,1-12.606,5.706h-56.5a16.792,16.792,0,0,1-16.755-17.825l18.007-288.52h47.9a6.494,6.494,0,0,1,6.482,6.089l17.626,282.431A16.688,16.688,0,0,1,705.543,690.964Z" transform="translate(-386.756 -390.322)"/></g><g transform="translate(92.928 32.79)"><g class="aa"><ellipse class="ab" cx="56.404" cy="140.177" rx="56.404" ry="140.177" transform="translate(21.501 76.328) rotate(-5.286)"/><ellipse class="ac" cx="66.9" cy="62.034" rx="66.9" ry="62.034" transform="translate(-20.052 119.456) rotate(-8.054)"/><path class="ad" d="M680.22,399.172,711.647,496.2a108.563,108.563,0,0,1-147.84-65.592c-.845-2.607-1.59-5.231-2.228-7.846a108.306,108.306,0,0,1,10.405-77.975l90.765,35.788a29.869,29.869,0,0,1,9.745,6.263,21.164,21.164,0,0,1,1.584,1.666A29.74,29.74,0,0,1,680.22,399.172Z" transform="translate(-377.059 -383.1)"/><path class="ae" d="M682.859,398.141l26.664,82.326a92.113,92.113,0,0,1-125.439-55.653c-.717-2.212-1.35-4.439-1.891-6.657A91.9,91.9,0,0,1,591.023,352l77.011,30.365a25.351,25.351,0,0,1,8.269,5.314,18.111,18.111,0,0,1,1.345,1.414A25.251,25.251,0,0,1,682.859,398.141Z" transform="translate(-380.402 -384.244)"/></g></g><g transform="translate(337.255)"><circle class="af" cx="46.76" cy="46.76" r="46.76"/><path class="ag" d="M727.534,398.106a46.748,46.748,0,0,1-27.068,42.423,46.129,46.129,0,1,0-62.32-61.663,46.768,46.768,0,0,1,89.388,19.24Z" transform="translate(-634.016 -351.351)"/><g transform="translate(30.839 24.933)"><path class="ah" d="M669.889,402.75q0-10.734,4.1-16.25t11.786-5.516q8.213,0,12.083,5.426t3.87,16.34q0,10.673-4.138,16.28t-11.814,5.607a15.392,15.392,0,0,1-7.076-1.53,13.118,13.118,0,0,1-4.948-4.378,20.437,20.437,0,0,1-2.908-6.9A39.49,39.49,0,0,1,669.889,402.75Zm8.632,0q0,6.9,1.679,10.883t5.579,3.989a5.78,5.78,0,0,0,5.636-3.6q1.676-3.6,1.679-11.273a43.874,43.874,0,0,0-.39-6.146,17.876,17.876,0,0,0-1.229-4.648,6.958,6.958,0,0,0-2.245-2.938,6.124,6.124,0,0,0-9.028,2.728Q678.524,395.494,678.521,402.75Z" transform="translate(-669.889 -380.983)"/></g></g><g transform="translate(0 159.413)"><path class="ai" d="M0,0H145.12a7.364,7.364,0,0,1,7.364,7.364V165.341A14.385,14.385,0,0,1,138.1,179.726H14.385A14.385,14.385,0,0,1,0,165.341V0A0,0,0,0,1,0,0Z" transform="translate(47.243)"/><path class="aj" d="M441.058,547V708.433a12.108,12.108,0,0,1-12.11,12.1H300.672a12.1,12.1,0,0,1-12.1-12.1V540.813H434.858A6.193,6.193,0,0,1,441.058,547Z" transform="translate(-241.328 -540.809)"/><path class="ak" d="M464.866,547.306v159.74c0,7.008-5.426,12.69-12.11,12.69h-14.05c6.683,0,12.1-5.682,12.1-12.69V540.813h7.858A6.35,6.35,0,0,1,464.866,547.306Z" transform="translate(-265.135 -540.809)"/><path class="al" d="M7.364,0H145.12a7.364,7.364,0,0,1,7.364,7.364V165.341A14.385,14.385,0,0,1,138.1,179.726H14.385A14.385,14.385,0,0,1,0,165.341V7.364A7.364,7.364,0,0,1,7.364,0Z" transform="translate(19.006)"/><path class="am" d="M433.675,547V708.433a12.1,12.1,0,0,1-12.1,12.1h-1.448a12.1,12.1,0,0,0,12.1-12.1V547a6.186,6.186,0,0,0-6.192-6.191h1.448A6.185,6.185,0,0,1,433.675,547Z" transform="translate(-262.189 -540.809)"/><path class="an" d="M266.843,720.534h-1.448a12.1,12.1,0,0,1-12.1-12.1V547a6.186,6.186,0,0,1,6.191-6.191h1.448A6.186,6.186,0,0,0,254.741,547V708.433A12.1,12.1,0,0,0,266.843,720.534Z" transform="translate(-235.734 -540.809)"/><rect class="ao" width="76.022" height="16.687" rx="8.344" transform="translate(56.498 18.468)"/><path class="ap" d="M429.536,584.093H261.208a6.2,6.2,0,0,0-6.2,6.2v125a12.1,12.1,0,0,0,12.1,12.1H423.629a12.1,12.1,0,0,0,12.1-12.1v-125A6.2,6.2,0,0,0,429.536,584.093Z" transform="translate(-236.006 -547.672)"/><rect class="aq" width="74.649" height="15.586" rx="7.793" transform="translate(57.923 19.855)"/><rect class="ar" width="74.649" height="15.586" rx="7.793" transform="translate(57.923 19.855)"/><g class="as" transform="translate(44.648 113.102)"><path class="at" d="M388.769,681.5v26.934a6.718,6.718,0,0,1-6.7,6.7H291.925a6.706,6.706,0,0,1-6.438-4.907,6.6,6.6,0,0,0,5.973,3.8h89.251a6.647,6.647,0,0,0,6.629-6.629V680.715a6.629,6.629,0,0,0-2.932-5.49A6.71,6.71,0,0,1,388.769,681.5Z" transform="translate(-285.487 -675.225)"/></g><g class="au" transform="translate(43.99 111.965)"><rect class="av" width="102.514" height="39.931" rx="7.88"/></g><ellipse class="aw" cx="15.322" cy="34.878" rx="15.322" ry="34.878" transform="matrix(0.653, -0.757, 0.757, 0.653, 0, 142.879)"/></g></g><g transform="translate(174.899 579.15)"><path class="ax" d="M288.384,735.984c-24.426-1.6-59.29,5.6-85.67-21.621-2.728-2.815-26.486-28.015-18.308-52.974.892-2.719,5.227-14.79,17.139-20.255,10.172-4.667,24.343-3.816,33.5,3.505,17.834,14.265,3.317,42.447,22.981,72.449C263.9,726.046,281.114,733.367,288.384,735.984Z" transform="translate(-182.702 -638.242)"/><path class="ay" d="M293.218,741.848s-40.308-.358-61.7-21.046a59.649,59.649,0,0,1-18.233-45.581" transform="translate(-187.535 -644.106)"/><path class="az" d="M288.384,735.984c-24.426-1.6-59.29,5.6-85.67-21.621-2.728-2.815-26.486-28.015-18.308-52.974.892-2.719,5.227-14.79,17.139-20.255,10.172-4.667,24.343-3.816,33.5,3.505,17.834,14.265,3.317,42.447,22.981,72.449C263.9,726.046,281.114,733.367,288.384,735.984Z" transform="translate(-182.702 -638.242)"/></g></g></svg>