<svg xmlns="http://www.w3.org/2000/svg" width="25" height="25" viewBox="0 0 25 25"><defs><style>.a{fill:#00a99b;}.b,.d{fill:none;}.b{stroke:#00a99b;stroke-width:2px;}.c{stroke:none;}</style></defs><path class="a" d="M.9-1.355v-7.22h2v7.22ZM1.906-9.506a1.083,1.083,0,0,1-.766-.3.946.946,0,0,1-.32-.717.941.941,0,0,1,.32-.712,1.077,1.077,0,0,1,.762-.3,1.081,1.081,0,0,1,.769.3.945.945,0,0,1,.317.712A.95.95,0,0,1,2.67-9.8,1.075,1.075,0,0,1,1.906-9.506Z" transform="translate(10.596 18)"/><g class="b"><circle class="c" cx="12.5" cy="12.5" r="12.5"/><circle class="d" cx="12.5" cy="12.5" r="11.5"/></g></svg>