<svg xmlns="http://www.w3.org/2000/svg" width="14.102" height="14.114" viewBox="0 0 14.102 14.114"><defs><style>.a{fill:#00a99b;fill-rule:evenodd;}</style></defs><path class="a" d="M29237.9,324.984c0-.2.1-.353.3-.353h6.6a3.52,3.52,0,0,0-.2,1.059v1.058h0v7.473a1.65,1.65,0,1,1-3.3,0v-1.086a.714.714,0,0,0-.7-.741h-2.7v-7.41Zm8,6.548v2.689a3.014,3.014,0,0,1-2.9,3.113h-3.8a4.1,4.1,0,0,1-4-4.2.714.714,0,0,1,.7-.741h.6v-7.41a1.758,1.758,0,0,1,1.7-1.764h8.7a2.454,2.454,0,0,1,2.4,2.47v1.729a.714.714,0,0,1-.7.741h-2.7v3.372Zm0-4.784V325.69a1.066,1.066,0,0,1,1-1.059,1,1,0,0,1,1,1.059v1.058Zm-5.9,7.473a3.26,3.26,0,0,0,.5,1.7h-1.3a2.683,2.683,0,0,1-2.6-2.117h3.4Zm-.8-5.355a.706.706,0,0,0,0,1.411h4a.706.706,0,0,0,0-1.411Zm-.7-2.118a.7.7,0,0,1,.7-.7h4a.706.706,0,0,1,0,1.411h-4A.7.7,0,0,1,29238.5,326.748Z" transform="translate(-29235.199 -323.22)"/></svg>