<svg xmlns="http://www.w3.org/2000/svg" width="30" height="30" viewBox="0 0 30 30"><defs><style>.a{fill:none;}.b{fill:#005091;}</style></defs><g transform="translate(0)"><rect class="a" width="30" height="30"/><g transform="translate(0 3)"><path class="b" d="M30,3.984V20a4,4,0,0,1-4,4H4a4,4,0,0,1-4-4V3.984A4,4,0,0,1,4,0H26a4,4,0,0,1,4,3.984Zm-2.057-.459A2,2,0,0,0,26,2H4A2,2,0,0,0,2.057,3.526l12.362,8.83a1,1,0,0,0,1.162,0l12.362-8.83ZM28,5.943l-11.256,8.04a3,3,0,0,1-3.487,0L2,5.943V20a2,2,0,0,0,2,2H26a2,2,0,0,0,2-2Z"/></g></g></svg>