<svg xmlns="http://www.w3.org/2000/svg" width="52" height="52" viewBox="0 0 52 52"><defs><style>.a{fill:#293644;opacity:0.5;}.b{fill:#fff;fill-rule:evenodd;}</style></defs><g transform="translate(-541 -2782)"><rect class="a" width="52" height="52" rx="26" transform="translate(541 2782)"/><path class="b" d="M321.975,363.444a6.008,6.008,0,0,1,8,.443,5.8,5.8,0,0,1,.246,8.042c-1.316,1.433-2.878,3.053-4.307,4.321a17.8,17.8,0,0,1-2.043,1.6,2.842,2.842,0,0,1-3.8,0,17.8,17.8,0,0,1-2.042-1.6c-1.429-1.268-2.991-2.888-4.307-4.321a5.8,5.8,0,0,1,.246-8.042,6.008,6.008,0,0,1,8-.443h0Zm6.831,1.614a4.352,4.352,0,0,0-5.8-.321l-1.037.83-1.037-.83a4.352,4.352,0,0,0-5.8.321,4.149,4.149,0,0,0-.2,5.751c1.3,1.418,2.82,2.99,4.186,4.2a16.115,16.115,0,0,0,1.843,1.45,1.312,1.312,0,0,0,2,0,16.2,16.2,0,0,0,1.843-1.45c1.366-1.211,2.884-2.783,4.186-4.2A4.149,4.149,0,0,0,328.806,365.058Z" transform="translate(244.266 2437.749)"/></g></svg>