<svg xmlns="http://www.w3.org/2000/svg" width="30.066" height="25.999" viewBox="0 0 30.066 25.999"><defs><style>.a{fill:none;stroke:#005091;stroke-linecap:round;stroke-linejoin:round;stroke-width:2px;}</style></defs><path class="a" d="M135.918,603.931a6.783,6.783,0,0,0-6.394-4.39,6.932,6.932,0,0,0-2.148.34,1.558,1.558,0,0,0-.185.056c-.12.043-.3.112-.527.217a7.177,7.177,0,0,0-.685.361,16.565,16.565,0,0,0-3.248,2.534,16.645,16.645,0,0,0-3.245-2.534,7.216,7.216,0,0,0-.688-.361,4.427,4.427,0,0,0-.709-.273,6.793,6.793,0,0,0-2.148-.34,6.784,6.784,0,0,0-6.4,4.39c-4.794,11.322,13.187,19.608,13.187,19.608S140.713,615.254,135.918,603.931Z" transform="translate(-107.698 -598.541)"/></svg>