<svg xmlns="http://www.w3.org/2000/svg" width="305.314" height="64" viewBox="0 0 305.314 64"><defs><style>.a{fill:#00a99b;}.b{fill:#c8e1c8;}</style></defs><g transform="translate(-483.412 -440.692)"><g transform="translate(490.325 458.105)"><path class="a" d="M565.37,510.894c.46.162.172.688.172.688a2.842,2.842,0,0,0-1.606.229c-.606.319-1.013,2.1-1.013,2.1a5.264,5.264,0,0,1,.707-2.6A2.317,2.317,0,0,1,565.37,510.894Z" transform="translate(-544.216 -505.662)"/><path class="a" d="M505.756,518.6a22.568,22.568,0,0,0,1.169-5.806,21.483,21.483,0,0,0-.191-5.2,33.25,33.25,0,0,1-.191,4.97c-.306,2.217-.879,4.091-.879,3.632s-.1-5.091-.141-7.232-.067-2.524.506-3.71,1.165-1.254,1.547-1.024a.828.828,0,0,1,.177.156,8.79,8.79,0,0,0,1.353,2.9,12.856,12.856,0,0,0,3.288,3.339,14.213,14.213,0,0,1-2.957-3.976,11.548,11.548,0,0,1-1.2-6.474c.229-.841,1.02-1.223,2.523-1.682a6.979,6.979,0,0,0,3.16-2.243c.382-.535.586-.612.663-.637s.025.383-.077.994a12.132,12.132,0,0,0,.382,5.3,27.013,27.013,0,0,0,3.339,6.932,63.949,63.949,0,0,1,4.371,7.71c.383,1.185.9,3.1.65,2.816a13.114,13.114,0,0,0-3.288-3.823,37.93,37.93,0,0,0-5.964-3.67,69.827,69.827,0,0,1,5.862,4.651,32.325,32.325,0,0,1,5,6.665,16.494,16.494,0,0,1-.1-6.6,7.889,7.889,0,0,1,1.529-3.033.416.416,0,0,1,.219-.125,9.217,9.217,0,0,0,1.616.011c1.988-.166,3.033-.459,3.339-1.109a2.469,2.469,0,0,0,.051-1.759c-.181-.336-.841-.522-.828-1.121a1.209,1.209,0,0,1,.612-.917c.026-.038-.025-.229-.255-.421a1.276,1.276,0,0,0-.3-.186,1.96,1.96,0,0,0,.415-.769,1.783,1.783,0,0,0-.1-.943s-.532.094-.637-.255c-.166-.548.433-.714.561-.892s.116-1-.076-1.07a20.488,20.488,0,0,1-3.2-1.369,2.164,2.164,0,0,0,.07-.6,4.788,4.788,0,0,1-.382.379l-.051-.041c-.637-.535-.4-1.772-.446-2.154a15.908,15.908,0,0,0-2.663-3.606,5.693,5.693,0,0,0-4.843-1.81,21.632,21.632,0,0,0-3.744,1.055,3.486,3.486,0,0,0-.156-.749c-.076-.1-1.1-.28-1.224-.1a9.143,9.143,0,0,1-2.778,2.6c-1.453.739-3.568,1.147-3.747,1.376a5.457,5.457,0,0,0-.332,2.778c.019.208.035.428.054.656a9.441,9.441,0,0,0-2.208,2.963c-.574,1.567.048,8.109-.265,12.061C504.7,520.9,504.933,521,505.756,518.6Zm15.2-15.134a8.744,8.744,0,0,1-2.4,4.129s2.752-2.906,2.447-8.513A9.065,9.065,0,0,1,520.956,503.462Zm1.427-7.8s-.459-.153-.612.51.583,4.28.408,6.932c-.306,4.639-2.6,6.245-2.6,6.245a11.676,11.676,0,0,0,2.294-6.7c.194-2.848-.612-5.505-.561-6.474S522.077,495.459,522.383,495.663Zm-.076,18.3c-.349-.647-.86-1.479-1.434-2.4a5.321,5.321,0,0,1,.006-1.219c.153-1.453,1.249-2.88,1.733-6.754s-.714-7.111-.2-7.366,1.937,1.045,2.5,1.682a13.973,13.973,0,0,1,1.554,2.37,8.8,8.8,0,0,0,.484,2.115.761.761,0,0,0,.189.2.26.26,0,0,1-.2.051,3.623,3.623,0,0,1-.65-.44,3.124,3.124,0,0,0-.267-1.128,1.863,1.863,0,0,1,.076.478,2.859,2.859,0,0,1-.038.765,4.125,4.125,0,0,1,.631.65,2.321,2.321,0,0,1-.516,1.09,4.721,4.721,0,0,1-.44.478,3.342,3.342,0,0,0,1.434-.918,2.207,2.207,0,0,0,.434-.7c1.025.634,2.86,1.494,2.86,1.494a.889.889,0,0,1-.051.612,1.36,1.36,0,0,0-.255,1.019.606.606,0,0,0,.561.484l-.2.255c-.2.255-.153.357-.383.994a1.259,1.259,0,0,1-.739.79,1.6,1.6,0,0,0,1.078-.364c.191.075.32.263.3.326a1.3,1.3,0,0,0-.344,1.109c.076.777.51.943.65,1.224a1.842,1.842,0,0,1,0,1.159c-.181.525-1.442.81-2.88.956a26.68,26.68,0,0,1-3.606.076s.155.056.43.128h-.01s.79.229.688.433-.331.612-.713,1.325a17.131,17.131,0,0,0-.943,2.421c-.038.108-.153.637-.28.179A14.744,14.744,0,0,0,522.307,513.963Z" transform="translate(-504.867 -494.732)"/><path class="a" d="M593,595.987c0,.037-.006.057-.006.057A.485.485,0,0,1,593,595.987Z" transform="translate(-564.596 -563.36)"/><path class="a" d="M517.047,540c.574,1.491,1.95,2.982,6.308,6.537s10.093,8.143,12.5,16.286a30.557,30.557,0,0,1,.623,9.17h1.488a25.017,25.017,0,0,1,1.117-7.23c1.136-2.784,4.261-4.962,4.6-6.178a5.93,5.93,0,0,0-.007-2.388c.015-.047.028-.093.039-.14a11.293,11.293,0,0,0-.2-2.48c.035-.62.044-1.417.008-2.16a8.762,8.762,0,0,1,.128-1.936,4.655,4.655,0,0,1,.321-.428s-1.07-.535-2.684,1.9a35.275,35.275,0,0,0-2.555,4.833,6.541,6.541,0,0,0-.19-2.378,2.174,2.174,0,0,0-1.164-1.466,3.626,3.626,0,0,1-.029,2.08c-.322,1.084-1.632,2.954-1.9,4.846-2.217-4.481-5.82-8.436-11.062-12.449C518.247,541.722,517.047,540,517.047,540Zm21.492,24.652a13.971,13.971,0,0,0-.719,2.706,15.02,15.02,0,0,0-.359-2.814,26.308,26.308,0,0,0-.806-2.8,16.675,16.675,0,0,1-.41-2.291c-.153-1.911.985-3.477,1.26-4.184a7.842,7.842,0,0,0,.383-1.314,6.456,6.456,0,0,1,.3,1.517,13.426,13.426,0,0,1-.1,2.083c-.094.435-.131.8-.131.8s1.2-2.782,2.3-5.042,2.065-2.4,2.065-2.4-1.989,4.323-1.971,6.305c0,0,.162-.508.479-1.4a13.4,13.4,0,0,0,1.242-1.854,5.888,5.888,0,0,0,.535-2.14c.013-.532.576-1.342.561-.931s-.1,2.227-.163,2.616a2.879,2.879,0,0,1-.566,1.826,6.86,6.86,0,0,0-.915,2.707,3.475,3.475,0,0,1,.383-1.015c.3-.586.977-1.532,1.306-2.087a3.22,3.22,0,0,1-.278,2.126,2.24,2.24,0,0,0-.363,1.713,4.408,4.408,0,0,1,.26-.864,5.114,5.114,0,0,1,.333-.678,1.592,1.592,0,0,1-.089,1.362C542.658,559.356,539.449,562.347,538.539,564.652Zm3.277-10.84c-.143.209-.336.465-.5.673.191-.511.411-1.082.657-1.7q.1-.245.193-.472A4.594,4.594,0,0,1,541.816,553.811Z" transform="translate(-513.122 -525.413)"/></g><path class="b" d="M488.166,524.316c-.028-2.751-.159-5.507-.094-8.259a11.278,11.278,0,0,1,.266-2.746,8.6,8.6,0,0,1,2.1-3.347,8.558,8.558,0,0,1,.236-2.731h-.329a6.948,6.948,0,0,0-6.927,6.928v7.259a6.951,6.951,0,0,0,4.735,6.564C488.213,526.767,488.178,525.537,488.166,524.316Z" transform="translate(0 -45.1)"/><path class="b" d="M549.96,582.289v11.446a6.945,6.945,0,0,0,6.789,6.92,2.034,2.034,0,0,1-.153-.854A23.49,23.49,0,0,0,549.96,582.289Z" transform="translate(-45.104 -95.97)"/><path class="b" d="M585.589,462.134H571.072V447.619a6.946,6.946,0,0,0-6.927-6.927h-7.258a6.947,6.947,0,0,0-6.928,6.927v8.127a7.76,7.76,0,0,1,1.5,0,8.511,8.511,0,0,1,4.768,2.275,16.448,16.448,0,0,1,2.961,3.682,4.166,4.166,0,0,1,.673,1.878,2.413,2.413,0,0,1,.649.8c1.2.455,2.542.8,3.147,1.937a3.706,3.706,0,0,1,.263,2.561c.007.02.016.04.023.061a3.75,3.75,0,0,1,.13,1.949,2.347,2.347,0,0,1,.112.37,2.594,2.594,0,0,1-.073,1.4c.015.02.032.038.046.058a3.992,3.992,0,0,1,.473,1.957,4.3,4.3,0,0,1-1.016,2.915c-1.272,1.361-3.517,1.673-5.423,1.662a5.4,5.4,0,0,0-.39.805,8.06,8.06,0,0,0-.37,2.707c0,.331.012.662.03.992a2.282,2.282,0,0,1,2.865-1.458,4.847,4.847,0,0,1,.888.478c1.508-2.375,3.565-4.287,6.282-3.127,1.371.586,1.378,2.246.78,3.358a1.334,1.334,0,0,1-.039.508q0,.575.026,1.149c0,.586-.037,1.168,0,1.747a14.869,14.869,0,0,1,.153,2.558,6.1,6.1,0,0,1-.57,4,20.48,20.48,0,0,1-2.446,2.96,9.964,9.964,0,0,0-2.126,2.864,11.984,11.984,0,0,0-.673,4.6,2.191,2.191,0,0,1-.391,1.293h1.938a6.948,6.948,0,0,0,6.927-6.927V483.248h14.516a6.949,6.949,0,0,0,6.927-6.928v-7.259A6.949,6.949,0,0,0,585.589,462.134Z" transform="translate(-45.104 0)"/><g transform="translate(560.329 455.639)"><g transform="translate(0 0)"><path class="a" d="M722.113,527.983v-20.56h4.347V524.4h8.814v3.584Z" transform="translate(-722.113 -500.868)"/><path class="a" d="M770.056,527.983v-20.56H783.91v3.584H774.4v4.9H783.2v3.584H774.4V524.4h9.547v3.584Z" transform="translate(-754.607 -500.868)"/><path class="a" d="M823.21,527.983v-20.56h4.347v9.065h.271l7.4-9.065h5.21l-7.63,9.206,7.72,11.354h-5.2L829.7,519.53l-2.139,2.61v5.843Z" transform="translate(-790.634 -500.868)"/><path class="a" d="M886.194,514.195h-4.658l7.1-20.56h5.6l7.087,20.56h-4.658l-5.15-15.862h-.161Zm-.291-8.082h11v3.394h-11Zm4-14.466,2.128-4.568h3.955l-3.062,4.568Z" transform="translate(-830.165 -487.079)"/><path class="a" d="M949.466,527.983v-20.56h8.112a8.8,8.8,0,0,1,3.98.828,5.849,5.849,0,0,1,2.52,2.339,7,7,0,0,1,.868,3.549,6.713,6.713,0,0,1-.883,3.519,5.725,5.725,0,0,1-2.555,2.254,9.469,9.469,0,0,1-4.04.783h-5.432V517.2h4.729a5.423,5.423,0,0,0,2.068-.342,2.483,2.483,0,0,0,1.23-1.024,3.266,3.266,0,0,0,.407-1.7,3.4,3.4,0,0,0-.407-1.727,2.58,2.58,0,0,0-1.235-1.069,5.164,5.164,0,0,0-2.083-.366h-2.932v17.006Zm11.1-9.357,5.11,9.357h-4.8l-5-9.357Z" transform="translate(-876.206 -500.868)"/><path class="a" d="M1006.83,527.983v-20.56h13.854v3.584h-9.507v4.9h8.794v3.584h-8.794V524.4h9.547v3.584Z" transform="translate(-915.086 -500.868)"/><path class="a" d="M1077.182,493.951v20.56h-3.755l-8.945-12.941h-.15v12.941h-4.347v-20.56h3.815l8.874,12.93h.181v-12.93Zm-10.6-6.4L1068.6,490l2.018-2.449h3.644v.14l-4.076,4.417H1067l-4.066-4.417v-.14Z" transform="translate(-951.112 -487.396)"/><path class="a" d="M1148.528,507.423h5.361l5.662,13.814h.241l5.662-13.814h5.36v20.56H1166.6V514.6h-.171l-5.321,13.282h-2.871l-5.321-13.332h-.171v13.432h-4.217Z" transform="translate(-1011.124 -500.868)"/><path class="a" d="M1228.9,514.195h-4.658l7.1-20.56h5.6l7.088,20.56h-4.658l-5.15-15.862h-.161Zm-.291-8.082h11v3.394h-11Zm4-14.466,2.129-4.568h3.955l-3.062,4.568Z" transform="translate(-1062.438 -487.079)"/><path class="a" d="M1292.168,527.983v-20.56h8.112a8.8,8.8,0,0,1,3.98.828,5.852,5.852,0,0,1,2.52,2.339,7,7,0,0,1,.868,3.549,6.711,6.711,0,0,1-.883,3.519,5.723,5.723,0,0,1-2.555,2.254,9.469,9.469,0,0,1-4.04.783h-5.431V517.2h4.728a5.421,5.421,0,0,0,2.068-.342,2.483,2.483,0,0,0,1.23-1.024,3.262,3.262,0,0,0,.407-1.7,3.4,3.4,0,0,0-.407-1.727,2.578,2.578,0,0,0-1.235-1.069,5.161,5.161,0,0,0-2.083-.366h-2.932v17.006Zm11.1-9.357,5.11,9.357h-4.8l-5-9.357Z" transform="translate(-1108.479 -500.868)"/><path class="a" d="M1353.835,507.423v20.56h-4.347v-20.56Z" transform="translate(-1147.329 -500.868)"/><path class="a" d="M1374.168,527.983h-4.658l7.1-20.56h5.6l7.087,20.56h-4.658l-5.15-15.862h-.161Zm-.291-8.082h11V523.3h-11Z" transform="translate(-1160.899 -500.868)"/></g></g></g></svg>