<svg xmlns="http://www.w3.org/2000/svg" width="64.121" height="64.097" viewBox="0 0 64.121 64.097"><defs><style>.a{fill:#fff;fill-rule:evenodd;}</style></defs><path class="a" d="M4319.509,270.734a3.223,3.223,0,0,1,3.227-3.206h25.609a3.221,3.221,0,0,1,3.225,3.206v18.727L4337.493,300.4a3.166,3.166,0,0,1-3.906,0l-14.078-10.935V270.734Zm-6.4,6.407v-6.407a9.623,9.623,0,0,1,9.627-9.618h25.609a9.626,9.626,0,0,1,9.629,9.618v6.407a9.624,9.624,0,0,1,9.627,9.613V315.6a9.623,9.623,0,0,1-9.627,9.613h-44.865a9.625,9.625,0,0,1-9.629-9.613V286.755A9.625,9.625,0,0,1,4313.108,277.141Zm44.865,6.412v.922l1-.767A3.261,3.261,0,0,0,4357.974,283.553Zm-44.865,0a3.252,3.252,0,0,0-1,.154l1,.767Zm-3.225,25.2V290.1l11.578,9Zm3.225,10.045a3.223,3.223,0,0,1-2.951-1.921l16.482-13.746,3,2.321a9.622,9.622,0,0,0,11.8,0l2.953-2.321,16.529,13.746a3.228,3.228,0,0,1-2.951,1.921Zm48.045-28.7v18.655l-11.535-9.65Zm-16.939-16.829a3.251,3.251,0,0,1,0,4.532l-4.133,4.146,4.133,4.141a3.251,3.251,0,0,1,0,4.532,3.212,3.212,0,0,1-4.541,0l-4.133-4.142-4.133,4.142a3.212,3.212,0,0,1-4.541,0,3.173,3.173,0,0,1,0-4.532L4331,281.95l-4.133-4.146a3.172,3.172,0,0,1,0-4.532,3.22,3.22,0,0,1,4.541,0l4.133,4.146,4.133-4.146A3.22,3.22,0,0,1,4344.214,273.272Z" transform="translate(-4303.479 -261.116)"/></svg>