<svg xmlns="http://www.w3.org/2000/svg" width="71.095" height="59.078" viewBox="0 0 71.095 59.078"><defs><style>.a,.b{fill:none;stroke:#dbc1b3;stroke-linejoin:round;stroke-width:2px;}.a{stroke-linecap:round;}</style></defs><g transform="translate(-277 -4814)"><path class="a" d="M318.039,1725.558H294.006a4.508,4.508,0,0,1-4.506-4.506v-33.046a4.508,4.508,0,0,1,4.506-4.506H348.08a4.508,4.508,0,0,1,4.506,4.506v13.519" transform="translate(-11.5 3131.5)"/><path class="a" d="M350.4,1684.031l-30.229,24.127-30.229-24.221" transform="translate(-10.623 3132.377)"/><path class="b" d="M318.023,1722.541s16.523-12.017,16.523-20.918c0-10.271-13.519-13.518-16.523-1.024-3-12.494-16.523-9.247-16.523,1.024C301.5,1710.524,318.023,1722.541,318.023,1722.541Z" transform="translate(12.55 3149.537)"/></g></svg>