<svg xmlns="http://www.w3.org/2000/svg" xmlns:xlink="http://www.w3.org/1999/xlink" width="191" height="140" viewBox="0 0 191 140"><defs><style>.a{fill:#fff;}.b{clip-path:url(#a);}.c{fill:none;}.d{fill:#4abcd6;}</style><clipPath id="a"><rect class="a" width="191" height="140" transform="translate(256 4774)"/></clipPath></defs><g class="b" transform="translate(-256 -4774)"><g transform="translate(263 4779)"><g transform="matrix(0.966, -0.259, 0.259, 0.966, -18.541, 38.164)"><rect class="c" width="165" height="165"/><g transform="translate(5.484 5.485)"><path class="d" d="M16.455,47.362,10.97,51.933v2.49l5.485,3.164Zm10.97-11.674V63.916L76.789,92.4l49.364-28.479V16.455a5.485,5.485,0,0,0-5.485-5.485H32.91a5.485,5.485,0,0,0-5.485,5.485V35.688Zm-10.97-2.6V16.455A16.455,16.455,0,0,1,32.91,0h87.758a16.455,16.455,0,0,1,16.455,16.455V33.083L149.63,43.506a10.971,10.971,0,0,1,3.948,8.427v79.7a21.94,21.94,0,0,1-21.94,21.939H21.94A21.94,21.94,0,0,1,0,131.637v-79.7a10.971,10.971,0,0,1,3.948-8.427ZM137.123,47.362V57.588l5.485-3.164v-2.49l-5.485-4.571ZM10.97,67.088v64.549a10.97,10.97,0,0,0,10.97,10.97h109.7a10.97,10.97,0,0,0,10.97-10.97V67.088L82.271,101.9a10.97,10.97,0,0,1-10.964,0ZM54.849,38.394a5.485,5.485,0,1,1,0-10.97H98.728a5.485,5.485,0,0,1,0,10.97Zm0,21.939a5.485,5.485,0,1,1,0-10.97H98.728a5.485,5.485,0,0,1,0,10.97Z" transform="translate(0)"/></g></g></g></g></svg>