<svg xmlns="http://www.w3.org/2000/svg" width="15" height="15" viewBox="0 0 15 15"><defs><style>.a{fill:none;}.b{fill:#005091;}</style></defs><rect class="a" width="15" height="15"/><g transform="translate(0.571 0.45)"><path class="b" d="M12.242,12.15A4.07,4.07,0,0,1,13.576,13.8a.483.483,0,1,1-.865.432A2.509,2.509,0,0,0,11.379,12.8l-.2.138a2.417,2.417,0,0,1-2.312.222A17.583,17.583,0,0,1,3.9,9.711,13.332,13.332,0,0,1,.325,4.66,2.417,2.417,0,0,1,.6,2.482l.551-.811a1.688,1.688,0,0,1,2.843.08l.09.15a3.121,3.121,0,0,1-.469,3.812L2.559,6.769a16.079,16.079,0,0,0,2,2.238,21.519,21.519,0,0,0,2.346,1.935l.969-.969A3.121,3.121,0,0,1,11.687,9.5l.15.09a1.688,1.688,0,0,1,.405,2.555ZM8.558,10.658l-.828.828a11.944,11.944,0,0,0,1.514.79,1.45,1.45,0,0,0,1.387-.133l.742-.5a.721.721,0,0,0-.034-1.215l-.15-.09A2.154,2.154,0,0,0,8.558,10.658ZM1.234,4.332a9.134,9.134,0,0,0,.779,1.616l.918-.918A2.154,2.154,0,0,0,3.254,2.4l-.09-.15A.721.721,0,0,0,1.95,2.215L1.4,3.025A1.45,1.45,0,0,0,1.234,4.332Z" transform="translate(-0.181 -0.932)"/></g></svg>