<svg xmlns="http://www.w3.org/2000/svg" width="23.124" height="23.125" viewBox="0 0 23.124 23.125"><defs><style>.a{fill:none;stroke:#000;stroke-linecap:round;stroke-linejoin:round;}</style></defs><g transform="translate(-48.876 -3890)"><path class="a" d="M57.586,3896.9a2.314,2.314,0,0,0,0-3.27l-2.454-2.454a2.313,2.313,0,0,0-3.272,0l-1.344,1.345a3.465,3.465,0,0,0-.439,4.366,53.779,53.779,0,0,0,15.034,15.034,3.47,3.47,0,0,0,4.366-.438l1.345-1.345a2.312,2.312,0,0,0,0-3.271l-2.453-2.453a2.312,2.312,0,0,0-3.271,0l-.818.817a54.866,54.866,0,0,1-7.512-7.513Z"/></g></svg>