<svg xmlns="http://www.w3.org/2000/svg" width="30" height="30" viewBox="0 0 30 30"><defs><style>.a{fill:none;}.b{fill:#005091;}</style></defs><rect class="a" width="30" height="30"/><g transform="translate(1 1)"><path class="b" d="M14.083,19a6,6,0,1,0,6.232-4.991l.24.16c2.412,1.608,3.1,3.68,1.8,5.846L22.3,20.1c-1.431,1.908-4.037,1.494-7.633-.752q-.283-.177-.584-.349ZM17.807,12.3A7.963,7.963,0,0,1,19,12.062V11.015L16.547,9.263l-1.41,1.175q1.376.974,2.67,1.867ZM21,12.062a7.948,7.948,0,0,1,1.854.462l.485-3.449a1,1,0,0,0-.417-.959L14.717,2.372a1,1,0,0,0-.858-.14L2.716,5.535A1,1,0,0,0,2,6.493v6.658q8.953,1.527,13.727,4.5c2.763,1.726,4.353,2,4.945,1.284.662-1.144.339-2.06-1.226-3.1q-2.553-1.7-5.464-3.763A2,2,0,0,1,13.857,8.9l1.41-1.175a2,2,0,0,1,2.443-.091l2.453,1.752A2,2,0,0,1,21,11.015Zm3.729,1.485a8,8,0,1,1-12.494,4.52A44.64,44.64,0,0,0,1.664,15.123,2,2,0,0,1,0,13.152V6.493A3,3,0,0,1,2.148,3.617L13.291.315a3,3,0,0,1,2.573.419l8.205,5.744a3,3,0,0,1,1.25,2.876l-.59,4.194Z"/></g></svg>