<svg xmlns="http://www.w3.org/2000/svg" xmlns:xlink="http://www.w3.org/1999/xlink" width="514.516" height="420" viewBox="0 0 514.516 420"><defs><style>.a{fill:#f9f6f1;}.b{opacity:0.4;mix-blend-mode:multiply;isolation:isolate;fill:url(#a);}.c{fill:url(#b);}.d{fill:url(#d);}.e{fill:url(#e);}.f{fill:url(#f);}.g{fill:#fff;opacity:0.7;}.h{fill:url(#g);}</style><radialGradient id="a" cx="0.599" cy="0.492" r="0.583" gradientTransform="matrix(0.732, -0.616, 0.384, 0.528, -0.029, 0.601)" gradientUnits="objectBoundingBox"><stop offset="0.008" stop-color="#b2b1b4"/><stop offset="0.117" stop-color="#b4b3b6" stop-opacity="0.949"/><stop offset="0.299" stop-color="#bcbabb" stop-opacity="0.804"/><stop offset="0.533" stop-color="#c9c5c4" stop-opacity="0.573"/><stop offset="0.805" stop-color="#dad4d1" stop-opacity="0.255"/><stop offset="0.999" stop-color="#e8e1db" stop-opacity="0"/></radialGradient><linearGradient id="b" x1="0.432" y1="1.011" x2="0.626" y2="-0.098" gradientUnits="objectBoundingBox"><stop offset="0" stop-color="#cde4f3"/><stop offset="1" stop-color="#e2f0f9"/></linearGradient><linearGradient id="d" x1="0.429" y1="0.969" x2="0.624" y2="-0.083" xlink:href="#b"/><linearGradient id="e" y1="0.5" x2="1" y2="0.5" gradientUnits="objectBoundingBox"><stop offset="0" stop-color="#2059b1"/><stop offset="0.165" stop-color="#2662b6"/><stop offset="0.436" stop-color="#377bc6"/><stop offset="0.779" stop-color="#53a3e0"/><stop offset="0.899" stop-color="#5fb3eb"/></linearGradient><linearGradient id="f" x1="0.53" y1="-0.236" x2="0.408" y2="1.862" gradientUnits="objectBoundingBox"><stop offset="0.009" stop-color="#f2f4ef"/><stop offset="0.401" stop-color="#c1d6e1"/><stop offset="0.798" stop-color="#95bdd4"/><stop offset="1" stop-color="#85b3d0"/></linearGradient><linearGradient id="g" x1="0.618" y1="0.659" x2="0.514" y2="0.377" gradientUnits="objectBoundingBox"><stop offset="0" stop-color="#639cc9"/><stop offset="0.213" stop-color="#689fca"/><stop offset="0.47" stop-color="#76a9cd"/><stop offset="0.747" stop-color="#8fb9d3"/><stop offset="0.988" stop-color="#9cc8e2"/></linearGradient></defs><g transform="translate(-142.912 -214.487)"><path class="a" d="M605.2,555.84q-2.067,3.523-4.225,6.664c-13.944,20.368-35.275,36.295-61.037,47.931-101.315,45.782-271.245,25.19-330.655-53.118a109.42,109.42,0,0,1-7.926-11.935c-2.307-4.026-32.32-57.983-11.42-100.477,14.94-30.369,42.578-27.821,67.369-62.8,27.157-38.312,9.985-63.925,27.4-97.05,36.353-69.162,183.052-94.243,227.214-44.528a50.132,50.132,0,0,1,4.175,5.386c29.331,43.549-20.973,99.523,24.369,146.989,26.551,27.8,58.215,34.611,75.354,64.556C632.589,486.777,621.035,529.006,605.2,555.84Z" transform="translate(-10.558)"/><path class="b" d="M613.805,567.241a370.818,370.818,0,0,1-57.144,49.084q-4.034,2.814-8.118,5.511C447.229,667.618,277.3,647.026,217.89,568.718c-16.225-79.645,34.635-181.442,131.667-249.159C406.444,279.853,468.85,259.1,524.7,257.319c29.331,43.549-20.973,99.523,24.369,146.989,26.551,27.8,58.214,34.611,75.354,64.556C641.195,498.179,629.641,540.408,613.805,567.241Z" transform="translate(-19.164 -11.401)"/><path class="c" d="M326.745,302.989c32.83-.049,81.486-8.828,84.82-28.273a15.761,15.761,0,0,0-5.181-14.141c-6.462-5.283-18.514-3.7-30.537,4.21,6.271-16.57,4.243-32.763-5.109-41.056-8.142-7.221-19.332-6.234-25.213-5.715-30.9,2.724-50.276,31.819-54.8,39-.192-2.786-.943-6.412-3.616-8.538-6.939-5.52-24.41,1-30,12.909a24.028,24.028,0,0,0-.166,19.226C266.71,303.079,311.713,303.011,326.745,302.989Z" transform="translate(-29.842 -0.843)"/><path class="c" d="M734.175,687c25.43-.038,63.119-6.839,65.7-21.9a12.21,12.21,0,0,0-4.013-10.954c-5.005-4.092-14.342-2.865-23.655,3.261,4.858-12.836,3.287-25.378-3.957-31.8-6.306-5.593-14.974-4.828-19.53-4.427-23.931,2.11-38.944,24.647-42.445,30.207-.15-2.158-.73-4.967-2.8-6.614-5.375-4.277-18.909.778-23.24,10a18.612,18.612,0,0,0-.128,14.893C687.671,687.072,722.53,687.019,734.175,687Z" transform="translate(-142.595 -108.18)"/><path class="d" d="M220.791,385.207c1.842-2.735,5.411-9.733,2.555-13.8-2.43-3.458-9.019-4.092-16.352-1.534.277-1.158,1.886-8.38-2.555-13.8-3.376-4.117-8.313-4.834-10.22-5.11-10.6-1.537-23.18,8.091-32.7,23.506-2.288-6.493-4.925-7.479-6.133-7.665-5.443-.839-13.9,9.644-12.264,16.352C146.883,398.594,206.912,405.819,220.791,385.207Z" transform="translate(0 -36.287)"/><g transform="translate(254.778 282.289)"><path class="e" d="M701.526,310.57,489.581,549.842,450.86,593.561,460,532.608,700.993,309.664A4.32,4.32,0,0,1,701.526,310.57Z" transform="translate(-336.749 -307.624)"/><path class="f" d="M659.877,314.3l-150.949,259.6a9.171,9.171,0,0,1-12.534,3.3L448.188,549.1l-29.577-17.234-52.16-31.154-2.718-1.63-63.916-38.219a9.164,9.164,0,0,1,1.375-16.4L653.834,307.24a4.76,4.76,0,0,1,4.509.48.175.175,0,0,1,.075.043,4.9,4.9,0,0,1,1.183,1.162,4.322,4.322,0,0,1,.533.906A4.777,4.777,0,0,1,659.877,314.3Z" transform="translate(-295.356 -306.884)"/><path class="g" d="M732.824,315.348l-150.949,259.6a9.161,9.161,0,0,1-12.47,3.336,9.146,9.146,0,0,0,10.125-4.274L732.018,313.948a5.56,5.56,0,0,0,1.063-3.066A4.777,4.777,0,0,1,732.824,315.348Z" transform="translate(-368.303 -307.936)"/><path class="h" d="M685.389,309.243,444.4,532.187l-9.144,60.953-43.016-92.107L684.206,308.081A4.9,4.9,0,0,1,685.389,309.243Z" transform="translate(-321.145 -307.203)"/><path class="g" d="M683.217,308.066,391.251,501.018l-2.729-1.62.011-.011L683.142,308.023A.175.175,0,0,1,683.217,308.066Z" transform="translate(-320.155 -307.187)"/></g></g></svg>