<svg xmlns="http://www.w3.org/2000/svg" width="30" height="30" viewBox="0 0 30 30"><defs><style>.a{fill:none;}.b{fill:#005091;}</style></defs><rect class="a" width="30" height="30"/><g transform="translate(0 3)"><path class="b" d="M28,12.639V20a4,4,0,0,1-4,4H6a4,4,0,0,1-4-4V12.642A1.5,1.5,0,0,1,.3,10.769L2.432,2.948A4,4,0,0,1,6.291,0H23.709a4,4,0,0,1,3.859,2.948L29.7,10.766A1.5,1.5,0,0,1,28,12.639Zm-2-.767-1.189-.478a2,2,0,0,0-1.537.019L21,12.392a4,4,0,0,1-3.243-.034l-1.944-.887a2,2,0,0,0-1.642-.008l-2.046.909a4,4,0,0,1-3.252,0l-2.116-.942A2,2,0,0,0,5.2,11.4l-1.2.48V20a2,2,0,0,0,2,2H24a2,2,0,0,0,2-2V11.872Zm1.506-1.55L25.638,3.474A2,2,0,0,0,23.709,2H6.291a2,2,0,0,0-1.93,1.474L2.493,10.327l1.968-.786a4,4,0,0,1,3.11.061l2.116.942a2,2,0,0,0,1.626,0l2.046-.909a4,4,0,0,1,3.285.016l1.944.887a2,2,0,0,0,1.622.017l2.272-.979a4,4,0,0,1,3.075-.038ZM9,27a1,1,0,0,1,0-2H21a1,1,0,0,1,0,2Z"/></g></svg>